<svg width="48" height="47" viewBox="0 0 48 47" fill="none" xmlns="http://www.w3.org/2000/svg">
<path fill-rule="evenodd" clip-rule="evenodd" d="M24 0.375019C18.3912 0.375774 12.9657 2.37197 8.69388 6.00653C4.42208 9.64109 1.5827 14.6769 0.683668 20.2132C-0.215364 25.7494 0.884597 31.4249 3.78679 36.2245C6.68898 41.024 11.2041 44.6345 16.5244 46.41C17.7056 46.6294 18.2119 45.9038 18.2119 45.2794V41.2631C11.6475 42.6806 10.2638 38.0906 10.2638 38.0906C9.80215 36.6442 8.83061 35.4147 7.53002 34.6313C5.38689 33.18 7.69877 33.1969 7.69877 33.1969C8.44735 33.3026 9.16187 33.5781 9.78774 34.0021C10.4136 34.4262 10.9343 34.9877 11.31 35.6438C11.9637 36.8161 13.0561 37.6809 14.3472 38.048C15.6383 38.4151 17.0224 38.2544 18.195 37.6013C18.2903 36.4039 18.8182 35.2822 19.68 34.4456C14.4488 33.8381 8.93064 31.8131 8.93064 22.7681C8.89238 20.419 9.76296 18.1458 11.3606 16.4231C10.6375 14.3883 10.722 12.1537 11.5969 10.1794C11.5969 10.1794 13.5713 9.53814 18.0938 12.5925C21.9606 11.5377 26.0394 11.5377 29.9063 12.5925C34.4119 9.53814 36.3863 10.1794 36.3863 10.1794C37.2611 12.1537 37.3457 14.3883 36.6225 16.4231C38.2202 18.1458 39.0908 20.419 39.0525 22.7681C39.0525 31.8469 33.5344 33.8381 28.2694 34.4288C28.8334 35.0004 29.2683 35.6863 29.5448 36.4403C29.8214 37.1942 29.9331 37.9986 29.8725 38.7994V45.2794C29.8725 46.0556 30.2944 46.6463 31.56 46.41C36.8873 44.6323 41.4071 41.0149 44.3088 36.2065C47.2106 31.3981 48.3045 25.7133 47.3944 20.1714C46.4843 14.6295 43.6297 9.59312 39.3425 5.96532C35.0554 2.33752 29.6161 0.355617 24 0.375019Z" fill="#1DA1F2"/>
</svg>
