<?xml version="1.0" encoding="utf-8"?>
<!-- Generator: Adobe Illustrator 25.1.0, SVG Export Plug-In . SVG Version: 6.00 Build 0)  -->
<svg version="1.1" xmlns="http://www.w3.org/2000/svg" xmlns:xlink="http://www.w3.org/1999/xlink" x="0px" y="0px"
	 viewBox="0 0 499.54 500" style="enable-background:new 0 0 499.54 500;" xml:space="preserve">
<style type="text/css">
	.st0{display:none;}
	.st1{display:inline;}
	.st2{fill:#F5F5F5;}
	.st3{fill:#E0E0E0;}
	.st4{fill:#FFFFFF;}
	.st5{fill:#EBEBEB;}
	.st6{fill:#FAFAFA;}
	.st7{fill:#263238;}
	.st8{fill:#455A64;}
	.st9{fill:#E8505B;}
	.st10{opacity:0.4;}
	.st11{opacity:0.3;}
	.st12{fill:#FFBE9D;}
	.st13{fill:#EB996E;}
	.st14{opacity:0.2;}
</style>
<g id="Background_Complete" class="st0">
	<g class="st1">
		<g>
			<g>
				<polygon class="st2" points="118.15,275.21 -44.83,275.21 -32.78,159.11 131.58,159.11 				"/>
			</g>
		</g>
		<g>
			<g>
				<g>
					<path class="st3" d="M-26.91,255.73c-0.14-0.01,1.54-17.47,3.76-38.99c2.22-21.52,4.14-38.96,4.28-38.94
						c0.14,0.01-1.54,17.47-3.76,38.99C-24.85,238.31-26.77,255.74-26.91,255.73z"/>
				</g>
			</g>
			<g>
				<g>
					<path class="st3" d="M2.76,181.68c0,0.14-3.66,0.26-8.18,0.26c-4.52,0-8.18-0.12-8.18-0.26c0-0.14,3.66-0.26,8.18-0.26
						C-0.9,181.42,2.76,181.53,2.76,181.68z"/>
				</g>
			</g>
			<g>
				<g>
					<path class="st3" d="M72.37,181.68c0,0.14-14.59,0.26-32.59,0.26c-18,0-32.59-0.12-32.59-0.26c0-0.14,14.59-0.26,32.59-0.26
						C57.78,181.42,72.37,181.53,72.37,181.68z"/>
				</g>
			</g>
			<g>
				<g>
					<path class="st3" d="M0.83,222.93c0,0.14-3.66,0.26-8.18,0.26c-4.52,0-8.18-0.12-8.18-0.26c0-0.14,3.66-0.26,8.18-0.26
						C-2.83,222.67,0.83,222.79,0.83,222.93z"/>
				</g>
			</g>
			<g>
				<g>
					<path class="st3" d="M70.45,222.93c0,0.14-14.59,0.26-32.59,0.26c-18,0-32.59-0.12-32.59-0.26c0-0.14,14.59-0.26,32.59-0.26
						C55.85,222.67,70.45,222.79,70.45,222.93z"/>
				</g>
			</g>
			<g>
				<g>
					<path class="st3" d="M48.24,241.95c0,0.14-14.59,0.26-32.59,0.26c-18,0-32.59-0.12-32.59-0.26c0-0.14,14.59-0.26,32.59-0.26
						C33.65,241.69,48.24,241.81,48.24,241.95z"/>
				</g>
			</g>
			<g>
				<g>
					<path class="st3" d="M9.97,193.32c0,0.14-5.15,0.26-11.51,0.26c-6.36,0-11.51-0.12-11.51-0.26c0-0.14,5.15-0.26,11.51-0.26
						C4.82,193.06,9.97,193.18,9.97,193.32z"/>
				</g>
			</g>
			<g>
				<g>
					<path class="st3" d="M9.39,210.4c0,0.14-5.15,0.26-11.51,0.26c-6.36,0-11.51-0.12-11.51-0.26c0-0.14,5.15-0.26,11.51-0.26
						C4.23,210.14,9.39,210.26,9.39,210.4z"/>
				</g>
			</g>
			<g>
				<g>
					<path class="st3" d="M28.85,234.81c0,0.14-5.15,0.26-11.51,0.26c-6.36,0-11.51-0.12-11.51-0.26c0-0.14,5.15-0.26,11.51-0.26
						C23.69,234.55,28.85,234.66,28.85,234.81z"/>
				</g>
			</g>
			<g>
				<g>
					<path class="st3" d="M93.71,193.32c0,0.14-13.17,0.26-29.4,0.26c-16.24,0-29.41-0.12-29.41-0.26c0-0.14,13.16-0.26,29.41-0.26
						C80.55,193.06,93.71,193.18,93.71,193.32z"/>
				</g>
			</g>
			<g>
				<g>
					<path class="st3" d="M75.56,211.39c0,0.14-13.17,0.26-29.4,0.26c-16.24,0-29.41-0.12-29.41-0.26c0-0.14,13.16-0.26,29.41-0.26
						C62.4,211.13,75.56,211.25,75.56,211.39z"/>
				</g>
			</g>
			<g>
				<g>
					<path class="st3" d="M95.8,234.81c0,0.14-13.17,0.26-29.4,0.26c-16.24,0-29.41-0.12-29.41-0.26c0-0.14,13.16-0.26,29.41-0.26
						C82.64,234.55,95.8,234.66,95.8,234.81z"/>
				</g>
			</g>
			<g>
				<g>
					<path class="st3" d="M42.11,255.73c0,0.14-13.17,0.26-29.4,0.26c-16.24,0-29.41-0.12-29.41-0.26c0-0.14,13.16-0.26,29.41-0.26
						C28.94,255.47,42.11,255.58,42.11,255.73z"/>
				</g>
			</g>
			<g>
				<g>
					<path class="st3" d="M107.14,255.73c0,0.14-13.17,0.26-29.4,0.26c-16.24,0-29.41-0.12-29.41-0.26c0-0.14,13.16-0.26,29.41-0.26
						C93.97,255.47,107.14,255.58,107.14,255.73z"/>
				</g>
			</g>
			<g>
				<g>
					<path class="st3" d="M42.1,262.53c0,0.14-13.17,0.26-29.4,0.26c-16.24,0-29.41-0.12-29.41-0.26s13.16-0.26,29.41-0.26
						C28.94,262.27,42.1,262.39,42.1,262.53z"/>
				</g>
			</g>
			<g>
				<g>
					<path class="st3" d="M44.96,198.23c0,0.14-13.17,0.26-29.4,0.26c-16.24,0-29.41-0.12-29.41-0.26c0-0.14,13.16-0.26,29.41-0.26
						C31.8,197.97,44.96,198.08,44.96,198.23z"/>
				</g>
			</g>
			<g>
				<g>
					<path class="st3" d="M29.28,193.39c0,0.14-3.39,0.26-7.57,0.26c-4.18,0-7.57-0.12-7.57-0.26s3.39-0.26,7.57-0.26
						C25.89,193.13,29.28,193.24,29.28,193.39z"/>
				</g>
			</g>
			<g>
				<g>
					<path class="st3" d="M-1.09,228.54c0,0.14-3.39,0.26-7.57,0.26c-4.18,0-7.57-0.12-7.57-0.26c0-0.14,3.39-0.26,7.57-0.26
						C-4.48,228.28-1.09,228.4-1.09,228.54z"/>
				</g>
			</g>
			<g>
				<g>
					<path class="st3" d="M-1.45,234.81c0,0.14-3.39,0.26-7.57,0.26c-4.18,0-7.57-0.12-7.57-0.26c0-0.14,3.39-0.26,7.57-0.26
						C-4.84,234.55-1.45,234.66-1.45,234.81z"/>
				</g>
			</g>
			<g>
				<g>
					<path class="st3" d="M129.78,171.39c0,0.14-36.65,0.26-81.86,0.26c-45.22,0-81.86-0.12-81.86-0.26s36.64-0.26,81.86-0.26
						C93.13,171.13,129.78,171.25,129.78,171.39z"/>
				</g>
			</g>
			<g>
				<circle class="st4" cx="-22.89" cy="165.86" r="1.94"/>
			</g>
			<g>
				<circle class="st4" cx="-14.56" cy="165.86" r="1.94"/>
			</g>
			<g>
				<circle class="st4" cx="-6.23" cy="165.86" r="1.94"/>
			</g>
		</g>
	</g>
	<g class="st1">
		<g>
			<g>
				<polygon class="st2" points="541.34,217.16 378.37,217.16 390.41,101.07 554.77,101.07 				"/>
			</g>
		</g>
		<g>
			<g>
				<g>
					<path class="st3" d="M396.28,197.68c-0.14-0.01,1.54-17.47,3.76-38.99c2.22-21.52,4.14-38.96,4.28-38.94
						c0.14,0.01-1.54,17.47-3.76,38.99C398.34,180.26,396.42,197.69,396.28,197.68z"/>
				</g>
			</g>
			<g>
				<g>
					<path class="st3" d="M425.96,123.63c0,0.14-3.66,0.26-8.18,0.26c-4.52,0-8.18-0.12-8.18-0.26c0-0.14,3.66-0.26,8.18-0.26
						C422.29,123.37,425.96,123.49,425.96,123.63z"/>
				</g>
			</g>
			<g>
				<g>
					<path class="st3" d="M495.57,123.63c0,0.14-14.59,0.26-32.59,0.26c-18,0-32.59-0.12-32.59-0.26c0-0.14,14.59-0.26,32.59-0.26
						C480.98,123.37,495.57,123.49,495.57,123.63z"/>
				</g>
			</g>
			<g>
				<g>
					<path class="st3" d="M424.03,164.89c0,0.14-3.66,0.26-8.18,0.26c-4.52,0-8.18-0.12-8.18-0.26c0-0.14,3.66-0.26,8.18-0.26
						C420.36,164.63,424.03,164.74,424.03,164.89z"/>
				</g>
			</g>
			<g>
				<g>
					<path class="st3" d="M493.64,164.89c0,0.14-14.59,0.26-32.59,0.26c-18,0-32.59-0.12-32.59-0.26c0-0.14,14.59-0.26,32.59-0.26
						C479.05,164.63,493.64,164.74,493.64,164.89z"/>
				</g>
			</g>
			<g>
				<g>
					<path class="st3" d="M471.44,183.91c0,0.14-14.59,0.26-32.59,0.26c-18,0-32.59-0.12-32.59-0.26c0-0.14,14.59-0.26,32.59-0.26
						C456.85,183.65,471.44,183.76,471.44,183.91z"/>
				</g>
			</g>
			<g>
				<g>
					<path class="st3" d="M433.17,135.28c0,0.14-5.15,0.26-11.51,0.26c-6.36,0-11.51-0.12-11.51-0.26s5.15-0.26,11.51-0.26
						C428.01,135.02,433.17,135.13,433.17,135.28z"/>
				</g>
			</g>
			<g>
				<g>
					<path class="st3" d="M432.58,152.35c0,0.14-5.15,0.26-11.51,0.26c-6.36,0-11.51-0.12-11.51-0.26c0-0.14,5.15-0.26,11.51-0.26
						C427.43,152.09,432.58,152.21,432.58,152.35z"/>
				</g>
			</g>
			<g>
				<g>
					<path class="st3" d="M452.04,176.76c0,0.14-5.15,0.26-11.51,0.26c-6.36,0-11.51-0.12-11.51-0.26c0-0.14,5.15-0.26,11.51-0.26
						C446.89,176.5,452.04,176.62,452.04,176.76z"/>
				</g>
			</g>
			<g>
				<g>
					<path class="st3" d="M516.91,135.28c0,0.14-13.17,0.26-29.4,0.26c-16.24,0-29.41-0.12-29.41-0.26s13.16-0.26,29.41-0.26
						C503.74,135.02,516.91,135.13,516.91,135.28z"/>
				</g>
			</g>
			<g>
				<g>
					<path class="st3" d="M498.76,153.34c0,0.14-13.17,0.26-29.4,0.26c-16.24,0-29.4-0.12-29.4-0.26c0-0.14,13.16-0.26,29.4-0.26
						C485.59,153.08,498.76,153.2,498.76,153.34z"/>
				</g>
			</g>
			<g>
				<g>
					<path class="st3" d="M518.99,176.76c0,0.14-13.17,0.26-29.4,0.26c-16.24,0-29.41-0.12-29.41-0.26c0-0.14,13.16-0.26,29.41-0.26
						C505.83,176.5,518.99,176.62,518.99,176.76z"/>
				</g>
			</g>
			<g>
				<g>
					<path class="st3" d="M465.3,197.68c0,0.14-13.17,0.26-29.4,0.26c-16.24,0-29.41-0.12-29.41-0.26c0-0.14,13.16-0.26,29.41-0.26
						C452.13,197.42,465.3,197.53,465.3,197.68z"/>
				</g>
			</g>
			<g>
				<g>
					<path class="st3" d="M530.33,197.68c0,0.14-13.17,0.26-29.4,0.26c-16.24,0-29.41-0.12-29.41-0.26c0-0.14,13.16-0.26,29.41-0.26
						C517.17,197.42,530.33,197.53,530.33,197.68z"/>
				</g>
			</g>
			<g>
				<g>
					<path class="st3" d="M465.3,204.48c0,0.14-13.17,0.26-29.4,0.26c-16.24,0-29.41-0.12-29.41-0.26c0-0.14,13.16-0.26,29.41-0.26
						C452.13,204.22,465.3,204.34,465.3,204.48z"/>
				</g>
			</g>
			<g>
				<g>
					<path class="st3" d="M468.16,140.18c0,0.14-13.17,0.26-29.4,0.26c-16.24,0-29.41-0.12-29.41-0.26s13.16-0.26,29.41-0.26
						C454.99,139.92,468.16,140.04,468.16,140.18z"/>
				</g>
			</g>
			<g>
				<g>
					<path class="st3" d="M452.47,135.34c0,0.14-3.39,0.26-7.57,0.26c-4.18,0-7.57-0.12-7.57-0.26c0-0.14,3.39-0.26,7.57-0.26
						C449.08,135.08,452.47,135.2,452.47,135.34z"/>
				</g>
			</g>
			<g>
				<g>
					<path class="st3" d="M422.1,170.49c0,0.14-3.39,0.26-7.57,0.26c-4.18,0-7.57-0.12-7.57-0.26s3.39-0.26,7.57-0.26
						C418.71,170.23,422.1,170.35,422.1,170.49z"/>
				</g>
			</g>
			<g>
				<g>
					<path class="st3" d="M421.74,176.76c0,0.14-3.39,0.26-7.57,0.26c-4.18,0-7.57-0.12-7.57-0.26c0-0.14,3.39-0.26,7.57-0.26
						C418.35,176.5,421.74,176.62,421.74,176.76z"/>
				</g>
			</g>
			<g>
				<g>
					<path class="st3" d="M552.98,113.34c0,0.14-36.65,0.26-81.86,0.26c-45.22,0-81.86-0.12-81.86-0.26
						c0-0.14,36.64-0.26,81.86-0.26C516.32,113.08,552.98,113.2,552.98,113.34z"/>
				</g>
			</g>
			<g>
				<circle class="st4" cx="400.3" cy="107.81" r="1.94"/>
			</g>
			<g>
				<circle class="st4" cx="408.63" cy="107.81" r="1.94"/>
			</g>
			<g>
				<circle class="st4" cx="416.97" cy="107.81" r="1.94"/>
			</g>
		</g>
	</g>
	<g class="st1">
		<g>
			<g>
				<polygon class="st5" points="199.51,141.36 98,141.36 105.5,69.05 207.87,69.05 				"/>
			</g>
		</g>
		<g>
			<g>
				<g>
					<path class="st3" d="M109.16,129.22c-0.14-0.01,0.86-10.89,2.25-24.29c1.38-13.41,2.62-24.26,2.76-24.24
						c0.14,0.01-0.86,10.89-2.25,24.3C110.54,118.38,109.3,129.24,109.16,129.22z"/>
				</g>
			</g>
			<g>
				<g>
					<path class="st3" d="M127.64,83.1c0,0.14-2.28,0.26-5.1,0.26c-2.81,0-5.1-0.12-5.1-0.26s2.28-0.26,5.1-0.26
						C125.36,82.84,127.64,82.96,127.64,83.1z"/>
				</g>
			</g>
			<g>
				<g>
					<path class="st3" d="M171,83.1c0,0.14-9.09,0.26-20.3,0.26c-11.21,0-20.3-0.12-20.3-0.26s9.09-0.26,20.3-0.26
						C161.91,82.84,171,82.96,171,83.1z"/>
				</g>
			</g>
			<g>
				<g>
					<path class="st3" d="M126.44,108.8c0,0.14-2.28,0.26-5.1,0.26c-2.81,0-5.1-0.12-5.1-0.26c0-0.14,2.28-0.26,5.1-0.26
						C124.16,108.54,126.44,108.66,126.44,108.8z"/>
				</g>
			</g>
			<g>
				<g>
					<path class="st3" d="M169.8,108.8c0,0.14-9.09,0.26-20.3,0.26c-11.21,0-20.3-0.12-20.3-0.26c0-0.14,9.09-0.26,20.3-0.26
						C160.71,108.54,169.8,108.66,169.8,108.8z"/>
				</g>
			</g>
			<g>
				<g>
					<path class="st3" d="M155.97,120.64c0,0.14-9.09,0.26-20.3,0.26c-11.21,0-20.3-0.12-20.3-0.26c0-0.14,9.09-0.26,20.3-0.26
						C146.88,120.38,155.97,120.5,155.97,120.64z"/>
				</g>
			</g>
			<g>
				<g>
					<path class="st3" d="M132.13,90.36c0,0.14-3.21,0.26-7.17,0.26c-3.96,0-7.17-0.12-7.17-0.26c0-0.14,3.21-0.26,7.17-0.26
						C128.92,90.1,132.13,90.21,132.13,90.36z"/>
				</g>
			</g>
			<g>
				<g>
					<path class="st3" d="M131.77,100.99c0,0.14-3.21,0.26-7.17,0.26c-3.96,0-7.17-0.12-7.17-0.26c0-0.14,3.21-0.26,7.17-0.26
						C128.56,100.73,131.77,100.85,131.77,100.99z"/>
				</g>
			</g>
			<g>
				<g>
					<path class="st3" d="M143.89,116.19c0,0.14-3.21,0.26-7.17,0.26c-3.96,0-7.17-0.12-7.17-0.26c0-0.14,3.21-0.26,7.17-0.26
						C140.68,115.93,143.89,116.05,143.89,116.19z"/>
				</g>
			</g>
			<g>
				<g>
					<path class="st3" d="M184.29,90.36c0,0.14-8.2,0.26-18.31,0.26c-10.12,0-18.31-0.12-18.31-0.26c0-0.14,8.2-0.26,18.31-0.26
						C176.09,90.1,184.29,90.21,184.29,90.36z"/>
				</g>
			</g>
			<g>
				<g>
					<path class="st3" d="M172.99,101.61c0,0.14-8.2,0.26-18.31,0.26c-10.12,0-18.31-0.12-18.31-0.26c0-0.14,8.2-0.26,18.31-0.26
						C164.79,101.35,172.99,101.47,172.99,101.61z"/>
				</g>
			</g>
			<g>
				<g>
					<path class="st3" d="M185.59,116.19c0,0.14-8.2,0.26-18.31,0.26c-10.12,0-18.31-0.12-18.31-0.26c0-0.14,8.2-0.26,18.31-0.26
						C177.39,115.93,185.59,116.05,185.59,116.19z"/>
				</g>
			</g>
			<g>
				<g>
					<path class="st3" d="M152.15,129.22c0,0.14-8.2,0.26-18.31,0.26c-10.12,0-18.31-0.12-18.31-0.26s8.2-0.26,18.31-0.26
						C143.95,128.96,152.15,129.08,152.15,129.22z"/>
				</g>
			</g>
			<g>
				<g>
					<path class="st3" d="M192.65,129.22c0,0.14-8.2,0.26-18.31,0.26c-10.12,0-18.31-0.12-18.31-0.26s8.2-0.26,18.31-0.26
						C184.45,128.96,192.65,129.08,192.65,129.22z"/>
				</g>
			</g>
			<g>
				<g>
					<path class="st3" d="M152.14,133.46c0,0.14-8.2,0.26-18.31,0.26c-10.12,0-18.31-0.12-18.31-0.26c0-0.14,8.2-0.26,18.31-0.26
						C143.94,133.2,152.14,133.32,152.14,133.46z"/>
				</g>
			</g>
			<g>
				<g>
					<path class="st3" d="M153.93,93.41c0,0.14-8.2,0.26-18.31,0.26c-10.12,0-18.31-0.12-18.31-0.26s8.2-0.26,18.31-0.26
						C145.73,93.15,153.93,93.27,153.93,93.41z"/>
				</g>
			</g>
			<g>
				<g>
					<path class="st3" d="M144.16,90.4c0,0.14-2.11,0.26-4.72,0.26c-2.61,0-4.72-0.12-4.72-0.26c0-0.14,2.11-0.26,4.72-0.26
						C142.05,90.14,144.16,90.25,144.16,90.4z"/>
				</g>
			</g>
			<g>
				<g>
					<path class="st3" d="M125.24,112.29c0,0.14-2.11,0.26-4.72,0.26c-2.61,0-4.72-0.12-4.72-0.26c0-0.14,2.11-0.26,4.72-0.26
						C123.13,112.03,125.24,112.15,125.24,112.29z"/>
				</g>
			</g>
			<g>
				<g>
					<path class="st3" d="M125.02,116.19c0,0.14-2.11,0.26-4.72,0.26c-2.61,0-4.72-0.12-4.72-0.26c0-0.14,2.11-0.26,4.72-0.26
						C122.91,115.93,125.02,116.05,125.02,116.19z"/>
				</g>
			</g>
			<g>
				<g>
					<path class="st3" d="M206.75,76.7c0,0.14-22.83,0.26-50.98,0.26c-28.16,0-50.99-0.12-50.99-0.26c0-0.14,22.82-0.26,50.99-0.26
						C183.93,76.44,206.75,76.55,206.75,76.7z"/>
				</g>
			</g>
			<g>
				<path class="st4" d="M112.87,73.25c0,0.67-0.54,1.21-1.21,1.21c-0.67,0-1.21-0.54-1.21-1.21c0-0.67,0.54-1.21,1.21-1.21
					C112.33,72.04,112.87,72.58,112.87,73.25z"/>
			</g>
			<g>
				<path class="st4" d="M118.06,73.25c0,0.67-0.54,1.21-1.21,1.21c-0.67,0-1.21-0.54-1.21-1.21c0-0.67,0.54-1.21,1.21-1.21
					C117.52,72.04,118.06,72.58,118.06,73.25z"/>
			</g>
			<g>
				<path class="st4" d="M123.25,73.25c0,0.67-0.54,1.21-1.21,1.21c-0.67,0-1.21-0.54-1.21-1.21c0-0.67,0.54-1.21,1.21-1.21
					C122.71,72.04,123.25,72.58,123.25,73.25z"/>
			</g>
		</g>
	</g>
	<g class="st1">
		<g>
			<g>
				<g>
					<g>
						<rect x="424.27" y="267.55" class="st5" width="51.12" height="165.46"/>
					</g>
				</g>
			</g>
			<g>
				<g>
					<g>
						<rect x="475.39" y="267.58" class="st3" width="43.4" height="165.4"/>
					</g>
				</g>
			</g>
			<g>
				<g>
					<g>
						<rect x="428.26" y="274.25" class="st3" width="41.01" height="35.64"/>
					</g>
				</g>
			</g>
			<g>
				<g>
					<g>
						<rect x="428.26" y="313.93" class="st3" width="41.01" height="35.64"/>
					</g>
				</g>
			</g>
			<g>
				<g>
					<g>
						<rect x="428.26" y="353.61" class="st3" width="41.01" height="35.64"/>
					</g>
				</g>
			</g>
			<g>
				<g>
					<g>
						<rect x="428.26" y="393.3" class="st3" width="41.01" height="35.64"/>
					</g>
				</g>
			</g>
			<g>
				<g>
					<g>
						<path class="st6" d="M448.77,280.83c0,0.79-0.64,1.42-1.42,1.42c-0.79,0-1.42-0.64-1.42-1.42c0-0.79,0.64-1.42,1.42-1.42
							C448.13,279.41,448.77,280.04,448.77,280.83z"/>
					</g>
				</g>
			</g>
			<g>
				<g>
					<g>
						<path class="st6" d="M448.77,320.97c0,0.79-0.64,1.42-1.42,1.42c-0.79,0-1.42-0.64-1.42-1.42c0-0.79,0.64-1.42,1.42-1.42
							C448.13,319.55,448.77,320.19,448.77,320.97z"/>
					</g>
				</g>
			</g>
			<g>
				<g>
					<g>
						<path class="st6" d="M448.77,361.12c0,0.79-0.64,1.42-1.42,1.42c-0.79,0-1.42-0.64-1.42-1.42c0-0.79,0.64-1.42,1.42-1.42
							C448.13,359.69,448.77,360.33,448.77,361.12z"/>
					</g>
				</g>
			</g>
			<g>
				<g>
					<g>
						<path class="st6" d="M448.77,401.26c0,0.79-0.64,1.42-1.42,1.42c-0.79,0-1.42-0.64-1.42-1.42c0-0.79,0.64-1.42,1.42-1.42
							C448.13,399.84,448.77,400.48,448.77,401.26z"/>
					</g>
				</g>
			</g>
		</g>
		<g>
			<g>
				<rect x="424.27" y="433.01" class="st3" width="5.91" height="33.19"/>
			</g>
		</g>
		<g>
			<g>
				<rect x="469.27" y="433.01" class="st3" width="5.91" height="33.19"/>
			</g>
		</g>
		<g>
			<g>
				<rect x="512.24" y="433.01" class="st3" width="5.91" height="33.19"/>
			</g>
		</g>
	</g>
	<g class="st1">
		<g>
			<path class="st2" d="M-5.17,456.83c-1.52-1.29-4.9-5.39-2.29-10.16c0.96-1.75,2.99-2.61,4.82-3.38c1.84-0.77,3.77-1.44,5.29-2.73
				c2.87-2.43,3.66-6.46,5.56-9.7c2.18-3.72,6.26-6.5,10.57-6.31c4.93,0.22,9.05,4.23,10.91,8.81c1.87,4.57,1.93,9.65,1.97,14.59
				c0.02,2.73-0.1,5.81-2.11,7.65c-1.86,1.7-4.65,1.72-7.17,1.64c-8.99-0.27-17.98-0.55-26.96-0.82"/>
		</g>
		<g>
			<g>
				<path class="st3" d="M46.4,383.03h-70.91l12.77,75.81c0.56,3.31,2.97,5.86,6.05,6.75c0.08,0.03,0.17,0.04,0.25,0.07
					c0.21,0.05,0.41,0.12,0.63,0.16c0.47,0.1,0.95,0.15,1.44,0.16c0,0.02,0.01,0.05,0.01,0.07l0.35-0.05c0,0,0,0,0,0h31.6
					c0.59,0,1.17-0.06,1.74-0.17c3.73-0.57,6.72-3.56,7.17-7.41l6.16-52.24l0.28-2.08h-0.03l2.44-20.69L46.4,383.03z M33.03,431.39
					h-7.28l0.73-22h8.43L33.03,431.39z M35.62,409.39h6.97l-2.59,22h-6.26L35.62,409.39z M14.83,455.78l-0.44-19.11h10.48
					l-0.64,19.11H14.83z M3.5,436.67h10.18l0.44,19.11H4.99L3.5,436.67z M4.29,455.78h-8.54c-0.81-5.16-1.87-11.87-3.01-19.11H2.8
					L4.29,455.78z M3.09,431.39l-1.72-22h11.68l0.51,22H3.09z M14.27,431.39l-0.51-22h12.02l-0.73,22H14.27z M13.64,404.11
					l-0.47-20.38h13.47l-0.68,20.38H13.64z M12.93,404.11H0.96l-1.59-20.38h13.09L12.93,404.11z M0.25,404.11h-12.67
					c-0.45-2.81-0.87-5.48-1.26-7.87c-1.32-8.24-1.82-11.34-2.09-12.5h14.43L0.25,404.11z M0.67,409.39l1.72,22H-8.09
					c-0.35-2.23-0.71-4.49-1.07-6.75c-0.82-5.19-1.64-10.39-2.42-15.25H0.67z M-8.8,431.39h-6.84l-3.71-22h7.07
					C-11.2,416.19-10.01,423.76-8.8,431.39z M-7.97,436.67c1.04,6.61,2.07,13.14,3.01,19.11h-6.57l-3.22-19.11H-7.97z M24.93,455.78
					l0.64-19.11h7l-1.64,19.11H24.93z M26.66,404.11l0.68-20.38h9.78l-1.75,20.38H26.66z M-16.43,383.73
					c0.28,1.47,1.58,9.49,3.31,20.38h-7.12l-3.43-20.38H-16.43z M37.12,455.78h-5.48l1.64-19.11h6.09L37.12,455.78z M43.21,404.11
					h-7.14l1.75-20.38h7.79L43.21,404.11z"/>
			</g>
		</g>
	</g>
</g>
<g id="Background_Simple">
	<path class="st5" d="M53.15,144.7c-6.08,9.24-13.78,23.02-16.27,33.8c-7.88,34.1-6.74,56.09,6.23,86.15
		c9,20.87,22.43,31.72,37.37,48.85c11.9,13.64,29.69,26.81,45.22,36.13c22.49,13.5,43.26,23.49,68.33,31.2
		c31.31,9.63,64.69,9.56,97.43,8.6c37.2-1.09,76.05-3.73,108-22.82c31.7-18.95,53.3-53.83,56.15-90.65
		c1.53-19.85-2.51-40.85-15.01-56.35c-11.78-14.61-30.05-22.98-48.61-25.76c-18.56-2.78-37.53-0.42-55.91,3.37
		c-21.03,4.34-43.29,10.49-63.41,2.99c-25.98-9.69-38.79-38.16-57.8-58.34c-21.31-22.61-52.61-35.44-83.66-34.28
		c-31.05,1.16-58.47,12.96-78.03,37.1L53.15,144.7z"/>
</g>
<g id="Screens">
	<g>
		<g>
			<g>
				<polygon class="st7" points="258.87,249.88 147.97,249.88 156.17,170.88 268.01,170.88 				"/>
			</g>
			<g>
				<polygon class="st8" points="253.23,249.88 142.32,249.88 150.52,170.88 262.36,170.88 				"/>
			</g>
			<g>
				<polygon class="st2" points="249.11,246.3 146.2,246.3 153.81,173 257.59,173 				"/>
			</g>
		</g>
		<g>
			<g>
				<g>
					<path class="st7" d="M157.36,234.08c-0.14-0.01,0.88-11.04,2.28-24.63c1.4-13.59,2.66-24.59,2.8-24.58
						c0.14,0.01-0.88,11.04-2.28,24.63C158.75,223.09,157.5,234.09,157.36,234.08z"/>
				</g>
			</g>
			<g>
				<g>
					<path class="st7" d="M176.1,187.32c0,0.14-2.31,0.26-5.17,0.26c-2.85,0-5.17-0.12-5.17-0.26c0-0.14,2.31-0.26,5.17-0.26
						C173.78,187.06,176.1,187.18,176.1,187.32z"/>
				</g>
			</g>
			<g>
				<g>
					<path class="st9" d="M220.05,187.32c0,0.14-9.21,0.26-20.58,0.26c-11.37,0-20.58-0.12-20.58-0.26c0-0.14,9.21-0.26,20.58-0.26
						C210.84,187.06,220.05,187.18,220.05,187.32z"/>
				</g>
			</g>
			<g>
				<g>
					<path class="st7" d="M174.88,213.37c0,0.14-2.31,0.26-5.17,0.26c-2.85,0-5.17-0.12-5.17-0.26c0-0.14,2.31-0.26,5.17-0.26
						C172.56,213.11,174.88,213.23,174.88,213.37z"/>
				</g>
			</g>
			<g>
				<g>
					<path class="st9" d="M218.83,213.37c0,0.14-9.21,0.26-20.58,0.26c-11.37,0-20.58-0.12-20.58-0.26c0-0.14,9.21-0.26,20.58-0.26
						C209.62,213.11,218.83,213.23,218.83,213.37z"/>
				</g>
			</g>
			<g>
				<g>
					<path class="st9" d="M204.81,225.38c0,0.14-9.21,0.26-20.58,0.26c-11.37,0-20.58-0.12-20.58-0.26s9.21-0.26,20.58-0.26
						C195.6,225.12,204.81,225.24,204.81,225.38z"/>
				</g>
			</g>
			<g>
				<g>
					<path class="st9" d="M180.65,194.67c0,0.14-3.25,0.26-7.27,0.26c-4.01,0-7.27-0.12-7.27-0.26s3.25-0.26,7.27-0.26
						C177.39,194.41,180.65,194.53,180.65,194.67z"/>
				</g>
			</g>
			<g>
				<g>
					<path class="st9" d="M180.28,205.46c0,0.14-3.25,0.26-7.27,0.26c-4.01,0-7.27-0.12-7.27-0.26c0-0.14,3.25-0.26,7.27-0.26
						C177.02,205.2,180.28,205.31,180.28,205.46z"/>
				</g>
			</g>
			<g>
				<g>
					<path class="st9" d="M192.57,220.87c0,0.14-3.25,0.26-7.27,0.26c-4.01,0-7.27-0.12-7.27-0.26s3.25-0.26,7.27-0.26
						C189.31,220.61,192.57,220.72,192.57,220.87z"/>
				</g>
			</g>
			<g>
				<g>
					<path class="st7" d="M233.53,194.67c0,0.14-8.31,0.26-18.57,0.26c-10.26,0-18.57-0.12-18.57-0.26s8.31-0.26,18.57-0.26
						C225.21,194.41,233.53,194.53,233.53,194.67z"/>
				</g>
			</g>
			<g>
				<g>
					<path class="st7" d="M222.07,206.08c0,0.14-8.31,0.26-18.57,0.26c-10.26,0-18.57-0.12-18.57-0.26s8.31-0.26,18.57-0.26
						C213.75,205.82,222.07,205.94,222.07,206.08z"/>
				</g>
			</g>
			<g>
				<g>
					<path class="st7" d="M234.84,220.87c0,0.14-8.31,0.26-18.57,0.26c-10.26,0-18.57-0.12-18.57-0.26s8.31-0.26,18.57-0.26
						C226.53,220.61,234.84,220.72,234.84,220.87z"/>
				</g>
			</g>
			<g>
				<g>
					<path class="st7" d="M200.94,234.08c0,0.14-8.31,0.26-18.57,0.26c-10.26,0-18.57-0.12-18.57-0.26s8.31-0.26,18.57-0.26
						C192.63,233.82,200.94,233.93,200.94,234.08z"/>
				</g>
			</g>
			<g>
				<g>
					<path class="st7" d="M242,234.08c0,0.14-8.31,0.26-18.57,0.26c-10.26,0-18.57-0.12-18.57-0.26s8.31-0.26,18.57-0.26
						C233.69,233.82,242,233.93,242,234.08z"/>
				</g>
			</g>
			<g>
				<g>
					<path class="st7" d="M200.94,238.37c0,0.14-8.31,0.26-18.57,0.26c-10.26,0-18.57-0.12-18.57-0.26c0-0.14,8.31-0.26,18.57-0.26
						C192.62,238.11,200.94,238.23,200.94,238.37z"/>
				</g>
			</g>
			<g>
				<g>
					<path class="st7" d="M202.74,197.77c0,0.14-8.31,0.26-18.57,0.26c-10.26,0-18.57-0.12-18.57-0.26c0-0.14,8.31-0.26,18.57-0.26
						C194.43,197.51,202.74,197.63,202.74,197.77z"/>
				</g>
			</g>
			<g>
				<g>
					<path class="st8" d="M192.84,194.71c0,0.14-2.14,0.26-4.78,0.26c-2.64,0-4.78-0.12-4.78-0.26c0-0.14,2.14-0.26,4.78-0.26
						C190.7,194.45,192.84,194.57,192.84,194.71z"/>
				</g>
			</g>
			<g>
				<g>
					<path class="st8" d="M173.66,216.91c0,0.14-2.14,0.26-4.78,0.26c-2.64,0-4.78-0.12-4.78-0.26c0-0.14,2.14-0.26,4.78-0.26
						C171.52,216.65,173.66,216.77,173.66,216.91z"/>
				</g>
			</g>
			<g>
				<g>
					<path class="st8" d="M173.44,220.87c0,0.14-2.14,0.26-4.78,0.26c-2.64,0-4.78-0.12-4.78-0.26s2.14-0.26,4.78-0.26
						C171.29,220.61,173.44,220.72,173.44,220.87z"/>
				</g>
			</g>
			<g>
				<g>
					<path class="st7" d="M256.3,180.82c0,0.14-23.14,0.26-51.69,0.26c-28.55,0-51.69-0.12-51.69-0.26c0-0.14,23.14-0.26,51.69-0.26
						C233.16,180.56,256.3,180.68,256.3,180.82z"/>
				</g>
			</g>
			<g>
				<path class="st4" d="M161.12,177.33c0,0.68-0.55,1.22-1.22,1.22c-0.68,0-1.22-0.55-1.22-1.22c0-0.68,0.55-1.22,1.22-1.22
					C160.57,176.1,161.12,176.65,161.12,177.33z"/>
			</g>
			<g>
				<path class="st4" d="M166.38,177.33c0,0.68-0.55,1.22-1.22,1.22s-1.22-0.55-1.22-1.22c0-0.68,0.55-1.22,1.22-1.22
					S166.38,176.65,166.38,177.33z"/>
			</g>
			<g>
				<path class="st4" d="M171.64,177.33c0,0.68-0.55,1.22-1.22,1.22c-0.68,0-1.22-0.55-1.22-1.22c0-0.68,0.55-1.22,1.22-1.22
					C171.1,176.1,171.64,176.65,171.64,177.33z"/>
			</g>
		</g>
	</g>
	<g>
		<g>
			<g>
				<polygon class="st7" points="404.57,252.28 287.9,252.28 296.53,169.17 414.18,169.17 				"/>
			</g>
			<g>
				<polygon class="st8" points="398.63,252.28 281.96,252.28 290.59,169.17 408.24,169.17 				"/>
			</g>
			<g>
				<polygon class="st5" points="394.3,248.51 286.05,248.51 294.05,171.4 403.22,171.4 				"/>
			</g>
		</g>
		<g>
			<g>
				<g>
					<path class="st7" d="M297.84,234.49c-0.14-0.01,0.94-11.62,2.41-25.91c1.48-14.3,2.79-25.87,2.93-25.86
						c0.14,0.01-0.94,11.61-2.41,25.91C299.3,222.93,297.98,234.5,297.84,234.49z"/>
				</g>
			</g>
			<g>
				<g>
					<path class="st7" d="M317.55,185.31c0,0.14-2.43,0.26-5.43,0.26c-3,0-5.43-0.12-5.43-0.26s2.43-0.26,5.43-0.26
						C315.12,185.04,317.55,185.16,317.55,185.31z"/>
				</g>
			</g>
			<g>
				<g>
					<path class="st9" d="M363.79,185.31c0,0.14-9.69,0.26-21.64,0.26c-11.96,0-21.65-0.12-21.65-0.26s9.69-0.26,21.65-0.26
						C354.1,185.04,363.79,185.16,363.79,185.31z"/>
				</g>
			</g>
			<g>
				<g>
					<path class="st7" d="M316.27,212.71c0,0.14-2.43,0.26-5.43,0.26c-3,0-5.43-0.12-5.43-0.26s2.43-0.26,5.43-0.26
						C313.84,212.45,316.27,212.57,316.27,212.71z"/>
				</g>
			</g>
			<g>
				<g>
					<path class="st9" d="M362.51,212.71c0,0.14-9.69,0.26-21.64,0.26c-11.96,0-21.65-0.12-21.65-0.26s9.69-0.26,21.65-0.26
						C352.82,212.45,362.51,212.57,362.51,212.71z"/>
				</g>
			</g>
			<g>
				<g>
					<path class="st9" d="M347.76,225.34c0,0.14-9.69,0.26-21.64,0.26c-11.96,0-21.65-0.12-21.65-0.26s9.69-0.26,21.65-0.26
						C338.07,225.08,347.76,225.2,347.76,225.34z"/>
				</g>
			</g>
			<g>
				<g>
					<path class="st9" d="M322.34,193.04c0,0.14-3.42,0.26-7.64,0.26c-4.22,0-7.65-0.12-7.65-0.26s3.42-0.26,7.65-0.26
						C318.92,192.78,322.34,192.9,322.34,193.04z"/>
				</g>
			</g>
			<g>
				<g>
					<path class="st9" d="M321.95,204.38c0,0.14-3.42,0.26-7.64,0.26c-4.22,0-7.65-0.12-7.65-0.26s3.42-0.26,7.65-0.26
						C318.53,204.12,321.95,204.24,321.95,204.38z"/>
				</g>
			</g>
			<g>
				<g>
					<path class="st9" d="M334.88,220.6c0,0.14-3.42,0.26-7.64,0.26c-4.22,0-7.65-0.12-7.65-0.26s3.42-0.26,7.65-0.26
						C331.45,220.34,334.88,220.45,334.88,220.6z"/>
				</g>
			</g>
			<g>
				<g>
					<path class="st7" d="M377.96,193.04c0,0.14-8.74,0.26-19.53,0.26c-10.79,0-19.53-0.12-19.53-0.26s8.74-0.26,19.53-0.26
						C369.22,192.78,377.96,192.9,377.96,193.04z"/>
				</g>
			</g>
			<g>
				<g>
					<path class="st7" d="M365.91,205.04c0,0.14-8.74,0.26-19.53,0.26c-10.79,0-19.53-0.12-19.53-0.26s8.74-0.26,19.53-0.26
						C357.16,204.78,365.91,204.9,365.91,205.04z"/>
				</g>
			</g>
			<g>
				<g>
					<path class="st7" d="M379.35,220.6c0,0.14-8.74,0.26-19.53,0.26c-10.79,0-19.53-0.12-19.53-0.26s8.74-0.26,19.53-0.26
						C370.6,220.34,379.35,220.45,379.35,220.6z"/>
				</g>
			</g>
			<g>
				<g>
					<path class="st7" d="M343.68,234.49c0,0.14-8.74,0.26-19.53,0.26c-10.79,0-19.53-0.12-19.53-0.26s8.74-0.26,19.53-0.26
						C334.94,234.23,343.68,234.35,343.68,234.49z"/>
				</g>
			</g>
			<g>
				<g>
					<path class="st7" d="M386.88,234.49c0,0.14-8.74,0.26-19.53,0.26c-10.79,0-19.53-0.12-19.53-0.26s8.74-0.26,19.53-0.26
						C378.14,234.23,386.88,234.35,386.88,234.49z"/>
				</g>
			</g>
			<g>
				<g>
					<path class="st7" d="M343.68,239.01c0,0.14-8.74,0.26-19.53,0.26c-10.79,0-19.53-0.12-19.53-0.26s8.74-0.26,19.53-0.26
						C334.94,238.75,343.68,238.87,343.68,239.01z"/>
				</g>
			</g>
			<g>
				<g>
					<path class="st7" d="M345.58,196.3c0,0.14-8.74,0.26-19.53,0.26c-10.79,0-19.53-0.12-19.53-0.26c0-0.14,8.74-0.26,19.53-0.26
						C336.84,196.04,345.58,196.15,345.58,196.3z"/>
				</g>
			</g>
			<g>
				<g>
					<path class="st8" d="M335.17,193.08c0,0.14-2.25,0.26-5.03,0.26c-2.78,0-5.03-0.12-5.03-0.26s2.25-0.26,5.03-0.26
						C332.91,192.82,335.17,192.94,335.17,193.08z"/>
				</g>
			</g>
			<g>
				<g>
					<path class="st8" d="M314.99,216.43c0,0.14-2.25,0.26-5.03,0.26c-2.78,0-5.03-0.12-5.03-0.26s2.25-0.26,5.03-0.26
						C312.74,216.17,314.99,216.29,314.99,216.43z"/>
				</g>
			</g>
			<g>
				<g>
					<path class="st8" d="M314.75,220.6c0,0.14-2.25,0.26-5.03,0.26c-2.78,0-5.03-0.12-5.03-0.26s2.25-0.26,5.03-0.26
						C312.5,220.34,314.75,220.45,314.75,220.6z"/>
				</g>
			</g>
			<g>
				<g>
					<path class="st7" d="M401.92,178.47c0,0.14-24.35,0.26-54.37,0.26c-30.04,0-54.38-0.12-54.38-0.26
						c0-0.14,24.34-0.26,54.38-0.26C377.58,178.21,401.92,178.33,401.92,178.47z"/>
				</g>
			</g>
			<g>
				<path class="st4" d="M301.8,174.8c0,0.71-0.58,1.29-1.29,1.29c-0.71,0-1.29-0.58-1.29-1.29c0-0.71,0.58-1.29,1.29-1.29
					C301.22,173.51,301.8,174.08,301.8,174.8z"/>
			</g>
			<g>
				<path class="st4" d="M307.33,174.8c0,0.71-0.58,1.29-1.29,1.29s-1.29-0.58-1.29-1.29c0-0.71,0.58-1.29,1.29-1.29
					S307.33,174.08,307.33,174.8z"/>
			</g>
			<g>
				<path class="st4" d="M312.87,174.8c0,0.71-0.58,1.29-1.29,1.29s-1.29-0.58-1.29-1.29c0-0.71,0.58-1.29,1.29-1.29
					S312.87,174.08,312.87,174.8z"/>
			</g>
		</g>
	</g>
	<g>
		<g>
			<g>
				<polygon class="st7" points="338,153.9 226.6,153.9 234.83,74.54 347.18,74.54 				"/>
			</g>
			<g>
				<polygon class="st8" points="332.33,153.9 220.92,153.9 229.16,74.54 341.51,74.54 				"/>
			</g>
			<g>
				<polygon class="st6" points="328.2,150.3 224.82,150.3 232.46,76.67 336.71,76.67 				"/>
			</g>
		</g>
		<g>
			<g>
				<g>
					<path class="st7" d="M236.19,137.95c-0.14-0.01,0.88-11.09,2.29-24.74c1.41-13.65,2.67-24.7,2.81-24.69
						c0.14,0.01-0.88,11.09-2.29,24.74C237.59,126.91,236.33,137.96,236.19,137.95z"/>
				</g>
			</g>
			<g>
				<g>
					<path class="st7" d="M255.01,90.98c0,0.14-2.32,0.26-5.19,0.26c-2.87,0-5.19-0.12-5.19-0.26s2.32-0.26,5.19-0.26
						C252.68,90.72,255.01,90.83,255.01,90.98z"/>
				</g>
			</g>
			<g>
				<g>
					<path class="st9" d="M299.16,90.98c0,0.14-9.25,0.26-20.67,0.26c-11.42,0-20.67-0.12-20.67-0.26s9.25-0.26,20.67-0.26
						C289.91,90.72,299.16,90.83,299.16,90.98z"/>
				</g>
			</g>
			<g>
				<g>
					<path class="st7" d="M253.78,117.15c0,0.14-2.32,0.26-5.19,0.26c-2.87,0-5.19-0.12-5.19-0.26c0-0.14,2.32-0.26,5.19-0.26
						C251.46,116.89,253.78,117,253.78,117.15z"/>
				</g>
			</g>
			<g>
				<g>
					<path class="st9" d="M297.94,117.15c0,0.14-9.25,0.26-20.67,0.26c-11.42,0-20.67-0.12-20.67-0.26c0-0.14,9.25-0.26,20.67-0.26
						C288.68,116.89,297.94,117,297.94,117.15z"/>
				</g>
			</g>
			<g>
				<g>
					<path class="st9" d="M283.86,129.21c0,0.14-9.25,0.26-20.67,0.26c-11.42,0-20.67-0.12-20.67-0.26s9.25-0.26,20.67-0.26
						C274.6,128.95,283.86,129.07,283.86,129.21z"/>
				</g>
			</g>
			<g>
				<g>
					<path class="st9" d="M259.58,98.37c0,0.14-3.27,0.26-7.3,0.26c-4.03,0-7.3-0.12-7.3-0.26c0-0.14,3.27-0.26,7.3-0.26
						C256.31,98.11,259.58,98.22,259.58,98.37z"/>
				</g>
			</g>
			<g>
				<g>
					<path class="st9" d="M259.21,109.2c0,0.14-3.27,0.26-7.3,0.26c-4.03,0-7.3-0.12-7.3-0.26c0-0.14,3.27-0.26,7.3-0.26
						C255.94,108.94,259.21,109.05,259.21,109.2z"/>
				</g>
			</g>
			<g>
				<g>
					<path class="st9" d="M271.55,124.68c0,0.14-3.27,0.26-7.3,0.26c-4.03,0-7.3-0.12-7.3-0.26c0-0.14,3.27-0.26,7.3-0.26
						C268.28,124.42,271.55,124.53,271.55,124.68z"/>
				</g>
			</g>
			<g>
				<g>
					<path class="st7" d="M312.7,98.37c0,0.14-8.35,0.26-18.65,0.26c-10.3,0-18.65-0.12-18.65-0.26c0-0.14,8.35-0.26,18.65-0.26
						C304.35,98.11,312.7,98.22,312.7,98.37z"/>
				</g>
			</g>
			<g>
				<g>
					<path class="st7" d="M301.19,109.83c0,0.14-8.35,0.26-18.65,0.26c-10.3,0-18.65-0.12-18.65-0.26c0-0.14,8.35-0.26,18.65-0.26
						C292.83,109.57,301.19,109.68,301.19,109.83z"/>
				</g>
			</g>
			<g>
				<g>
					<path class="st7" d="M314.02,124.68c0,0.14-8.35,0.26-18.65,0.26c-10.3,0-18.65-0.12-18.65-0.26c0-0.14,8.35-0.26,18.65-0.26
						C305.67,124.42,314.02,124.53,314.02,124.68z"/>
				</g>
			</g>
			<g>
				<g>
					<path class="st7" d="M279.96,137.95c0,0.14-8.35,0.26-18.65,0.26c-10.3,0-18.65-0.12-18.65-0.26s8.35-0.26,18.65-0.26
						C271.61,137.69,279.96,137.8,279.96,137.95z"/>
				</g>
			</g>
			<g>
				<g>
					<path class="st7" d="M321.21,137.95c0,0.14-8.35,0.26-18.65,0.26c-10.3,0-18.65-0.12-18.65-0.26s8.35-0.26,18.65-0.26
						C312.86,137.69,321.21,137.8,321.21,137.95z"/>
				</g>
			</g>
			<g>
				<g>
					<path class="st7" d="M279.96,142.26c0,0.14-8.35,0.26-18.65,0.26c-10.3,0-18.65-0.12-18.65-0.26s8.35-0.26,18.65-0.26
						C271.61,142,279.96,142.12,279.96,142.26z"/>
				</g>
			</g>
			<g>
				<g>
					<path class="st7" d="M281.78,101.48c0,0.14-8.35,0.26-18.65,0.26c-10.3,0-18.65-0.12-18.65-0.26c0-0.14,8.35-0.26,18.65-0.26
						C273.42,101.22,281.78,101.33,281.78,101.48z"/>
				</g>
			</g>
			<g>
				<g>
					<path class="st8" d="M271.83,98.41c0,0.14-2.15,0.26-4.8,0.26c-2.65,0-4.8-0.12-4.8-0.26c0-0.14,2.15-0.26,4.8-0.26
						C269.68,98.15,271.83,98.26,271.83,98.41z"/>
				</g>
			</g>
			<g>
				<g>
					<path class="st8" d="M252.56,120.7c0,0.14-2.15,0.26-4.8,0.26c-2.65,0-4.8-0.12-4.8-0.26c0-0.14,2.15-0.26,4.8-0.26
						C250.41,120.44,252.56,120.56,252.56,120.7z"/>
				</g>
			</g>
			<g>
				<g>
					<path class="st8" d="M252.34,124.68c0,0.14-2.15,0.26-4.8,0.26c-2.65,0-4.8-0.12-4.8-0.26c0-0.14,2.15-0.26,4.8-0.26
						C250.19,124.42,252.34,124.53,252.34,124.68z"/>
				</g>
			</g>
			<g>
				<g>
					<path class="st7" d="M335.58,84.45c0,0.14-23.25,0.26-51.92,0.26c-28.68,0-51.92-0.12-51.92-0.26s23.24-0.26,51.92-0.26
						C312.33,84.19,335.58,84.31,335.58,84.45z"/>
				</g>
			</g>
			<g>
				<circle class="st4" cx="238.74" cy="80.94" r="1.23"/>
			</g>
			<g>
				<circle class="st4" cx="244.02" cy="80.94" r="1.23"/>
			</g>
			<g>
				<circle class="st4" cx="249.31" cy="80.94" r="1.23"/>
			</g>
		</g>
	</g>
</g>
<g id="Character">
	<g>
		<g>
			<rect x="140.59" y="453.69" class="st7" width="8.68" height="11.84"/>
		</g>
		<g>
			<g>
				<g>
					<g>
						<g>
							<g>

									<rect x="195.79" y="311.79" transform="matrix(-1 -1.224647e-16 1.224647e-16 -1 468.5999 627.3208)" class="st7" width="77.01" height="3.75"/>
							</g>
						</g>
						<g>
							<g>
								<polygon class="st7" points="284.74,315.53 299.19,261.4 239.05,261.4 225.97,315.53 								"/>
							</g>
						</g>
					</g>
					<g>
						<g>
							<polygon class="st2" points="229.58,311.44 283.3,311.44 295.8,263.9 241.8,263.9 							"/>
						</g>
					</g>
				</g>
				<g>
					<polygon class="st3" points="243.14,273.11 239.81,286.57 275.43,286.57 279.23,273.11 					"/>
				</g>
				<g>
					<g>
						<path class="st8" d="M271.72,271.33c0,0.14-6.25,0.26-13.95,0.26c-7.71,0-13.95-0.12-13.95-0.26c0-0.14,6.25-0.26,13.95-0.26
							C265.47,271.07,271.72,271.19,271.72,271.33z"/>
					</g>
				</g>
				<g>
					<g>
						<path class="st7" d="M255.48,275.68c0,0.14-2.52,0.26-5.62,0.26c-3.11,0-5.62-0.12-5.62-0.26s2.52-0.26,5.62-0.26
							C252.96,275.42,255.48,275.54,255.48,275.68z"/>
					</g>
				</g>
				<g>
					<g>
						<path class="st7" d="M264.5,275.47c0,0.14-1.64,0.26-3.66,0.26c-2.02,0-3.66-0.12-3.66-0.26s1.64-0.26,3.66-0.26
							C262.86,275.21,264.5,275.33,264.5,275.47z"/>
					</g>
				</g>
				<g>
					<g>
						<path class="st8" d="M274.69,278.12c0,0.14-6.89,0.26-15.39,0.26c-8.5,0-15.39-0.12-15.39-0.26s6.89-0.26,15.39-0.26
							C267.8,277.86,274.69,277.98,274.69,278.12z"/>
					</g>
				</g>
				<g>
					<g>
						<path class="st9" d="M253.25,280.35c0,0.14-2.23,0.26-4.99,0.26c-2.75,0-4.99-0.12-4.99-0.26s2.23-0.26,4.99-0.26
							C251.02,280.09,253.25,280.21,253.25,280.35z"/>
					</g>
				</g>
				<g>
					<g>
						<path class="st8" d="M271.93,283.54c0,0.14-6.39,0.26-14.27,0.26c-7.88,0-14.27-0.12-14.27-0.26s6.39-0.26,14.27-0.26
							C265.54,283.28,271.93,283.39,271.93,283.54z"/>
					</g>
				</g>
				<g>
					<g>
						<path class="st8" d="M250.92,290.43c0,0.14-2.47,0.26-5.52,0.26c-3.05,0-5.52-0.12-5.52-0.26s2.47-0.26,5.52-0.26
							C248.45,290.17,250.92,290.29,250.92,290.43z"/>
					</g>
				</g>
				<g>
					<g>
						<path class="st7" d="M260.36,290.48c0,0.14-1.69,0.25-3.77,0.23c-2.08-0.02-3.77-0.15-3.77-0.29c0-0.14,1.69-0.25,3.77-0.23
							C258.68,290.2,260.36,290.33,260.36,290.48z"/>
					</g>
				</g>
				<g>
					<g>
						<path class="st7" d="M265.67,290.22c0,0.14-0.71,0.26-1.59,0.26c-0.88,0-1.59-0.12-1.59-0.26s0.71-0.26,1.59-0.26
							C264.95,289.96,265.67,290.08,265.67,290.22z"/>
					</g>
				</g>
				<g>
					<g>
						<path class="st9" d="M243.6,293.19c0,0.14-0.78,0.26-1.75,0.26c-0.97,0-1.75-0.12-1.75-0.26c0-0.14,0.78-0.26,1.75-0.26
							C242.81,292.93,243.6,293.05,243.6,293.19z"/>
					</g>
				</g>
				<g>
					<g>
						<path class="st7" d="M254.1,293.19c0,0.14-1.88,0.26-4.19,0.26c-2.32,0-4.19-0.12-4.19-0.26c0-0.14,1.88-0.26,4.19-0.26
							C252.22,292.93,254.1,293.05,254.1,293.19z"/>
					</g>
				</g>
				<g>
					<g>
						<path class="st8" d="M279.14,292.87c0,0.14-5.01,0.26-11.19,0.26c-6.18,0-11.2-0.12-11.2-0.26c0-0.14,5.01-0.26,11.2-0.26
							C274.13,292.61,279.14,292.73,279.14,292.87z"/>
					</g>
				</g>
				<g>
					<g>
						<path class="st7" d="M243.07,296.06c0,0.14-0.81,0.26-1.8,0.26c-1,0-1.8-0.12-1.8-0.26c0-0.14,0.81-0.26,1.8-0.26
							C242.26,295.8,243.07,295.91,243.07,296.06z"/>
					</g>
				</g>
				<g>
					<g>
						<path class="st7" d="M248.58,295.95c0,0.14-0.97,0.26-2.18,0.26c-1.2,0-2.18-0.12-2.18-0.26c0-0.14,0.97-0.26,2.18-0.26
							C247.61,295.69,248.58,295.81,248.58,295.95z"/>
					</g>
				</g>
				<g>
					<g>
						<path class="st8" d="M265.03,295.74c0,0.14-3.16,0.26-7.06,0.26c-3.9,0-7.06-0.12-7.06-0.26c0-0.14,3.16-0.26,7.06-0.26
							C261.87,295.48,265.03,295.6,265.03,295.74z"/>
					</g>
				</g>
				<g>
					<g>
						<path class="st8" d="M256.33,300.73c0,0.14-3.82,0.26-8.54,0.26c-4.72,0-8.54-0.12-8.54-0.26s3.82-0.26,8.54-0.26
							C252.51,300.47,256.33,300.58,256.33,300.73z"/>
					</g>
				</g>
				<g>
					<g>
						<path class="st9" d="M266.3,300.51c0,0.14-1.73,0.26-3.87,0.26c-2.14,0-3.87-0.12-3.87-0.26s1.73-0.26,3.87-0.26
							C264.57,300.25,266.3,300.37,266.3,300.51z"/>
					</g>
				</g>
				<g>
					<g>
						<path class="st7" d="M281.11,300.51c0,0.14-2.87,0.26-6.42,0.26c-3.55,0-6.42-0.12-6.42-0.26s2.87-0.26,6.42-0.26
							C278.23,300.25,281.11,300.37,281.11,300.51z"/>
					</g>
				</g>
				<g>
					<g>
						<path class="st7" d="M277.66,271.12c0,0.14-0.59,0.26-1.33,0.26c-0.73,0-1.33-0.12-1.33-0.26s0.59-0.26,1.33-0.26
							C277.06,270.86,277.66,270.98,277.66,271.12z"/>
					</g>
				</g>
				<g>
					<g>
						<path class="st9" d="M250.6,269.32c0,0.14-1.31,0.26-2.92,0.26c-1.61,0-2.92-0.12-2.92-0.26c0-0.14,1.31-0.26,2.92-0.26
							C249.29,269.06,250.6,269.17,250.6,269.32z"/>
					</g>
				</g>
				<g>
					<path class="st5" d="M294.9,267.32c-18.19,0-35.82,0-54.01,0l0.91-3.42h54L294.9,267.32z"/>
				</g>
				<g>
					<circle class="st6" cx="244.08" cy="265.63" r="0.59"/>
				</g>
				<g>
					<circle class="st6" cx="246.11" cy="265.63" r="0.59"/>
				</g>
				<g>
					<circle class="st6" cx="248.14" cy="265.63" r="0.59"/>
				</g>
			</g>
			<g>
				<g>
					<g>
						<g>
							<rect x="232.67" y="320.57" class="st7" width="128.04" height="74.71"/>
						</g>
						<g>
							<rect x="232.67" y="320.57" class="st8" width="58.33" height="74.71"/>
						</g>
						<g>
							<g>
								<g>
									<path class="st7" d="M285.06,345.94c-0.01-0.01-0.01-0.14-0.02-0.38c-0.01-0.27-0.01-0.63-0.02-1.09
										c-0.01-0.98-0.03-2.37-0.05-4.15c-0.02-3.6-0.06-8.77-0.1-15.13l0.19,0.19c-12.13,0.02-28.68,0.04-46.92,0.07
										c-0.23,0.23,0.31-0.32,0.26-0.26v0.01v0.01v0.02v0.04v0.09v0.17l0,0.34v0.68l0,1.36c0,0.9,0,1.8,0,2.69
										c0,1.78,0,3.55,0,5.28c0,3.47-0.01,6.84-0.01,10.06l-0.25-0.25c13.59,0.05,25.28,0.09,33.61,0.12
										c4.15,0.03,7.46,0.05,9.76,0.07c1.12,0.01,2,0.02,2.62,0.03c0.28,0.01,0.51,0.01,0.68,0.02
										C284.97,345.93,285.05,345.94,285.06,345.94c0.01,0.01-0.07,0.01-0.21,0.02c-0.17,0-0.39,0.01-0.66,0.02
										c-0.62,0.01-1.47,0.02-2.57,0.03c-2.29,0.02-5.58,0.04-9.7,0.07c-8.37,0.03-20.12,0.07-33.78,0.12l-0.25,0l0-0.25
										c0-3.22-0.01-6.59-0.01-10.06c0-1.74,0-3.5,0-5.28c0-0.89,0-1.79,0-2.69l0-1.36v-0.68v-0.34v-0.17v-0.09v-0.04v-0.02v-0.01
										v-0.01c-0.06,0.05,0.49-0.5,0.26-0.26c18.24,0.03,34.79,0.05,46.92,0.07l0.19,0l0,0.19c-0.04,6.41-0.08,11.61-0.1,15.24
										c-0.02,1.76-0.04,3.14-0.05,4.11c-0.01,0.44-0.02,0.79-0.02,1.06C285.07,345.83,285.07,345.95,285.06,345.94z"/>
								</g>
							</g>
							<g>
								<g>
									<path class="st7" d="M263.59,335.57c-0.09,0.04-0.03-0.8-0.9-1.44c-0.41-0.3-1.07-0.45-1.69-0.21
										c-0.62,0.22-1.14,0.88-1.14,1.65c-0.01,0.77,0.52,1.42,1.14,1.65c0.62,0.24,1.28,0.09,1.69-0.21
										C263.56,336.37,263.5,335.53,263.59,335.57c0.03,0,0.08,0.18,0.04,0.51c-0.05,0.33-0.23,0.82-0.71,1.22
										c-0.46,0.4-1.27,0.65-2.08,0.37c-0.8-0.25-1.5-1.1-1.49-2.1c-0.01-1,0.7-1.84,1.49-2.1c0.81-0.28,1.62-0.03,2.08,0.37
										c0.48,0.4,0.67,0.9,0.71,1.22C263.68,335.39,263.62,335.57,263.59,335.57z"/>
								</g>
							</g>
						</g>
						<g>
							<g>
								<g>
									<path class="st7" d="M285.06,368.79c-0.01-0.01-0.01-0.14-0.02-0.38c-0.01-0.27-0.01-0.63-0.02-1.09
										c-0.01-0.98-0.03-2.37-0.05-4.15c-0.02-3.6-0.06-8.77-0.1-15.13l0.19,0.19c-12.13,0.02-28.68,0.04-46.92,0.07
										c-0.23,0.23,0.31-0.32,0.26-0.26v0.01v0.01v0.02v0.04v0.09v0.17l0,0.34v0.68l0,1.36c0,0.9,0,1.8,0,2.69
										c0,1.78,0,3.55,0,5.28c0,3.47-0.01,6.84-0.01,10.06l-0.25-0.25c13.59,0.05,25.28,0.09,33.61,0.12
										c4.15,0.03,7.46,0.05,9.76,0.07c1.12,0.01,2,0.02,2.62,0.03c0.28,0.01,0.51,0.01,0.68,0.02
										C284.97,368.78,285.05,368.78,285.06,368.79c0.01,0.01-0.07,0.01-0.21,0.02c-0.17,0-0.39,0.01-0.66,0.02
										c-0.62,0.01-1.47,0.02-2.57,0.03c-2.29,0.02-5.58,0.04-9.7,0.07c-8.37,0.03-20.12,0.07-33.78,0.12l-0.25,0l0-0.25
										c0-3.22-0.01-6.59-0.01-10.06c0-1.74,0-3.5,0-5.28c0-0.89,0-1.79,0-2.69l0-1.36v-0.68v-0.34v-0.17v-0.09v-0.04v-0.02v-0.01
										v-0.01c-0.06,0.05,0.49-0.5,0.26-0.26c18.24,0.03,34.79,0.05,46.92,0.07l0.19,0l0,0.19c-0.04,6.41-0.08,11.61-0.1,15.24
										c-0.02,1.76-0.04,3.14-0.05,4.11c-0.01,0.44-0.02,0.79-0.02,1.06C285.07,368.68,285.07,368.8,285.06,368.79z"/>
								</g>
							</g>
							<g>
								<g>
									<path class="st7" d="M263.59,358.41c-0.09,0.04-0.03-0.8-0.9-1.44c-0.41-0.3-1.07-0.45-1.69-0.21
										c-0.62,0.22-1.14,0.88-1.14,1.65c-0.01,0.77,0.52,1.42,1.14,1.65c0.62,0.24,1.28,0.09,1.69-0.21
										C263.56,359.21,263.5,358.38,263.59,358.41c0.03,0,0.08,0.18,0.04,0.51c-0.05,0.33-0.23,0.82-0.71,1.22
										c-0.46,0.4-1.27,0.65-2.08,0.37c-0.8-0.25-1.5-1.1-1.49-2.1c-0.01-1,0.7-1.84,1.49-2.1c0.81-0.28,1.62-0.03,2.08,0.37
										c0.48,0.4,0.67,0.9,0.71,1.22C263.68,358.23,263.62,358.41,263.59,358.41z"/>
								</g>
							</g>
						</g>
						<g>
							<g>
								<g>
									<path class="st7" d="M285.06,391.63c-0.01-0.01-0.01-0.14-0.02-0.38c-0.01-0.27-0.01-0.63-0.02-1.09
										c-0.01-0.98-0.03-2.37-0.05-4.15c-0.02-3.6-0.06-8.77-0.1-15.13l0.19,0.19c-12.13,0.02-28.68,0.04-46.92,0.07
										c-0.23,0.23,0.31-0.32,0.26-0.26v0.01v0.01v0.02v0.04v0.09v0.17l0,0.34v0.68l0,1.36c0,0.9,0,1.8,0,2.69
										c0,1.78,0,3.55,0,5.28c0,3.47-0.01,6.84-0.01,10.06l-0.25-0.25c13.59,0.05,25.28,0.09,33.61,0.12
										c4.15,0.03,7.46,0.05,9.76,0.07c1.12,0.01,2,0.02,2.62,0.03c0.28,0.01,0.51,0.01,0.68,0.02
										C284.97,391.62,285.05,391.63,285.06,391.63c0.01,0.01-0.07,0.01-0.21,0.02c-0.17,0-0.39,0.01-0.66,0.02
										c-0.62,0.01-1.47,0.02-2.57,0.03c-2.29,0.02-5.58,0.04-9.7,0.07c-8.37,0.03-20.12,0.07-33.78,0.12l-0.25,0l0-0.25
										c0-3.22-0.01-6.59-0.01-10.06c0-1.74,0-3.5,0-5.28c0-0.89,0-1.79,0-2.69l0-1.36v-0.68v-0.34v-0.17v-0.09v-0.04v-0.02v-0.01
										v-0.01c-0.06,0.05,0.49-0.5,0.26-0.26c18.24,0.03,34.79,0.05,46.92,0.07l0.19,0l0,0.19c-0.04,6.41-0.08,11.61-0.1,15.24
										c-0.02,1.76-0.04,3.14-0.05,4.11c-0.01,0.44-0.02,0.79-0.02,1.06C285.07,391.52,285.07,391.64,285.06,391.63z"/>
								</g>
							</g>
							<g>
								<g>
									<path class="st7" d="M263.59,381.26c-0.09,0.04-0.03-0.8-0.9-1.44c-0.41-0.3-1.07-0.45-1.69-0.21
										c-0.62,0.22-1.14,0.88-1.14,1.65c-0.01,0.77,0.52,1.42,1.14,1.65c0.62,0.24,1.28,0.09,1.69-0.21
										C263.56,382.06,263.5,381.22,263.59,381.26c0.03,0,0.08,0.18,0.04,0.51c-0.05,0.33-0.23,0.82-0.71,1.22
										c-0.46,0.4-1.27,0.65-2.08,0.37c-0.8-0.25-1.5-1.1-1.49-2.1c-0.01-1,0.7-1.84,1.49-2.1c0.81-0.28,1.62-0.03,2.08,0.37
										c0.48,0.4,0.67,0.9,0.71,1.22C263.68,381.08,263.62,381.26,263.59,381.26z"/>
								</g>
							</g>
						</g>
					</g>
					<g>
						<polygon class="st7" points="147.4,456.09 61.83,456.02 61.83,320.57 147.4,320.57 						"/>
					</g>
					<g>
						<rect x="57.7" y="315.36" class="st7" width="307.66" height="7.1"/>
					</g>
					<g>
						<rect x="61.83" y="322.46" class="st7" width="9.54" height="143.7"/>
					</g>
					<g>
						<rect x="351.17" y="322.46" class="st7" width="9.54" height="143.74"/>
					</g>
					<g>
						<rect x="291" y="322.46" class="st7" width="9.54" height="143.74"/>
					</g>
				</g>
				<g>
					<g>
						<path class="st8" d="M100.97,315.36c0,0.14-9.17,0.26-20.48,0.26c-11.31,0-20.48-0.12-20.48-0.26s9.17-0.26,20.48-0.26
							C91.79,315.1,100.97,315.21,100.97,315.36z"/>
					</g>
				</g>
			</g>
			<g>
				<g>
					<g>
						<g>
							<g>
								<g>
									<g>
										<g>
											<path class="st9" d="M190.92,459.16l0.24-10.28l-19.25-0.58l-0.52,15.03l1.19,0.11c5.3,0.45,26.99,1.94,30.58,0.97
												C207.16,463.34,190.92,459.16,190.92,459.16z"/>
										</g>
									</g>
								</g>
							</g>
							<g class="st10">
								<g>
									<g>
										<path class="st4" d="M198.84,461.49c0,0,5.68,1.83,4.94,2.75c-0.74,0.92-22.72,0.25-32.39-0.9l0.04-0.43l25.63,1.01
											C197.07,463.91,197.72,461.5,198.84,461.49z"/>
									</g>
								</g>
							</g>
							<g>
								<g>
									<g>
										<g>
											<path class="st7" d="M171.14,462.89c0,0.01,0.11,0.02,0.33,0.05c0.28,0.03,0.6,0.05,0.95,0.09
												c0.95,0.07,2.12,0.16,3.49,0.26c2.95,0.2,7.03,0.42,11.54,0.56c4.51,0.14,8.6,0.18,11.56,0.17
												c1.38-0.02,2.55-0.03,3.5-0.04c0.35-0.01,0.67-0.02,0.95-0.03c0.22-0.01,0.33-0.02,0.33-0.03c0-0.01-0.11-0.02-0.33-0.02
												c-0.29-0.01-0.6-0.01-0.95-0.02c-0.95-0.01-2.12-0.02-3.5-0.04c-2.96-0.03-7.04-0.1-11.55-0.24
												c-4.51-0.14-8.59-0.33-11.54-0.49c-1.38-0.07-2.55-0.13-3.5-0.18c-0.35-0.02-0.67-0.03-0.95-0.04
												C171.25,462.88,171.14,462.88,171.14,462.89z"/>
										</g>
									</g>
								</g>
							</g>
							<g>
								<g>
									<g>
										<g>
											<path class="st7" d="M197.05,464.21c0.07,0.01,0.15-0.82,0.7-1.65c0.54-0.84,1.27-1.24,1.23-1.3
												c-0.01-0.06-0.85,0.28-1.43,1.17C196.97,463.32,196.99,464.23,197.05,464.21z"/>
										</g>
									</g>
								</g>
							</g>
							<g>
								<g>
									<g>
										<g>
											<path class="st7" d="M191.46,461.16c0.05,0.04,0.34-0.29,0.63-0.72c0.29-0.43,0.49-0.81,0.44-0.85
												c-0.05-0.04-0.34,0.29-0.63,0.72C191.6,460.74,191.41,461.12,191.46,461.16z"/>
										</g>
									</g>
								</g>
							</g>
							<g>
								<g>
									<g>
										<g>
											<path class="st7" d="M189.93,460.29c0.04,0.05,0.35-0.14,0.69-0.43c0.34-0.29,0.58-0.56,0.54-0.61
												c-0.04-0.05-0.35,0.14-0.69,0.43C190.13,459.96,189.89,460.24,189.93,460.29z"/>
										</g>
									</g>
								</g>
							</g>
							<g>
								<g>
									<g>
										<g>
											<path class="st7" d="M189,458.44c0,0.06,0.45,0.14,1,0.16c0.56,0.02,1.01-0.01,1.01-0.07c0-0.06-0.45-0.14-1-0.16
												C189.45,458.34,189,458.37,189,458.44z"/>
										</g>
									</g>
								</g>
							</g>
							<g>
								<g>
									<g>
										<g>
											<path class="st7" d="M188.7,457.15c-0.02,0.06,0.46,0.29,1.11,0.36c0.65,0.07,1.17-0.06,1.16-0.12
												c-0.01-0.07-0.52-0.05-1.14-0.11C189.22,457.21,188.72,457.08,188.7,457.15z"/>
										</g>
									</g>
								</g>
							</g>
							<g>
								<g>
									<g>
										<g>
											<path class="st7" d="M192.17,459.5c0,0.03,0.47,0.1,1.24,0.03c0.38-0.03,0.84-0.11,1.33-0.25
												c0.24-0.08,0.5-0.14,0.76-0.29c0.12-0.08,0.26-0.19,0.32-0.37c0.06-0.18-0.04-0.39-0.17-0.5
												c-1.16-0.65-2.37-0.02-2.83,0.58c-0.25,0.3-0.37,0.61-0.43,0.81c-0.06,0.21-0.06,0.33-0.04,0.33
												c0.04,0.02,0.1-0.48,0.6-1.04c0.25-0.27,0.61-0.53,1.08-0.65c0.44-0.12,1.06-0.13,1.47,0.15
												c0.19,0.15,0.11,0.38-0.11,0.5c-0.21,0.12-0.47,0.2-0.7,0.28c-0.47,0.15-0.91,0.24-1.28,0.29
												C192.64,459.47,192.17,459.46,192.17,459.5z"/>
										</g>
									</g>
								</g>
							</g>
							<g>
								<g>
									<g>
										<g>
											<path class="st7" d="M192.48,459.57c0.02,0.01,0.21-0.3,0.17-0.85c-0.02-0.27-0.11-0.6-0.31-0.91
												c-0.21-0.28-0.48-0.67-1.01-0.66c-0.29,0.03-0.44,0.35-0.4,0.56c0.02,0.22,0.11,0.41,0.19,0.56
												c0.17,0.31,0.37,0.57,0.56,0.77c0.38,0.39,0.68,0.55,0.69,0.52c0.02-0.03-0.24-0.23-0.57-0.63
												c-0.16-0.2-0.34-0.46-0.49-0.76c-0.16-0.27-0.26-0.74,0.05-0.79c0.31-0.02,0.62,0.3,0.8,0.55
												c0.19,0.27,0.29,0.57,0.33,0.81C192.57,459.24,192.44,459.56,192.48,459.57z"/>
										</g>
									</g>
								</g>
							</g>
							<g>
								<g>
									<g>
										<g>
											<path class="st7" d="M171.69,457.63c0,0.04,0.55-0.04,1.42,0.09c0.86,0.12,2.05,0.51,3.06,1.37
												c1.02,0.86,1.59,1.97,1.85,2.8c0.27,0.83,0.28,1.39,0.32,1.39c0.01,0,0.03-0.14,0.01-0.39
												c-0.01-0.25-0.06-0.61-0.18-1.04c-0.23-0.86-0.8-2.03-1.86-2.93c-1.06-0.9-2.31-1.28-3.19-1.36
												c-0.45-0.04-0.81-0.03-1.06-0.01C171.83,457.59,171.69,457.62,171.69,457.63z"/>
										</g>
									</g>
								</g>
							</g>
							<g>
								<g>
									<g>
										<g>
											<path class="st7" d="M173.93,449.68c-0.06,0-0.19,1.76-0.29,3.95c-0.09,2.18-0.12,3.96-0.06,3.96
												c0.06,0,0.19-1.76,0.29-3.95C173.97,451.46,174,449.69,173.93,449.68z"/>
										</g>
									</g>
								</g>
							</g>
							<g>
								<g>
									<g>
										<g>
											<path class="st7" d="M180.86,461.59c-0.01,0.06,1.24,0.3,2.8,0.37c1.56,0.07,2.83-0.08,2.82-0.14
												c0-0.07-1.26-0.03-2.81-0.09C182.12,461.67,180.87,461.53,180.86,461.59z"/>
										</g>
									</g>
								</g>
							</g>
							<g>
								<g>
									<g>
										<g>
											<path class="st7" d="M177.09,461.47c-0.05,0.05,0.09,0.27,0.21,0.56c0.12,0.29,0.18,0.55,0.25,0.55
												c0.06,0,0.11-0.3-0.03-0.64C177.38,461.61,177.13,461.43,177.09,461.47z"/>
										</g>
									</g>
								</g>
							</g>
							<g>
								<g>
									<g>
										<g>
											<path class="st7" d="M175.72,459.66c-0.05,0.04,0.07,0.25,0.26,0.46c0.19,0.21,0.39,0.34,0.43,0.3
												c0.05-0.04-0.07-0.25-0.26-0.46C175.96,459.75,175.77,459.62,175.72,459.66z"/>
										</g>
									</g>
								</g>
							</g>
							<g>
								<g>
									<g>
										<g>
											<path class="st7" d="M173.71,458.79c0.01,0.07,0.27,0.07,0.55,0.18c0.28,0.1,0.48,0.26,0.53,0.22
												c0.05-0.03-0.1-0.31-0.45-0.44C173.99,458.62,173.69,458.73,173.71,458.79z"/>
										</g>
									</g>
								</g>
							</g>
							<g>
								<g>
									<g>
										<g>
											<path class="st7" d="M172.27,458.36c-0.03,0.06,0.08,0.16,0.24,0.23c0.16,0.07,0.31,0.07,0.33,0.01
												c0.03-0.06-0.08-0.16-0.24-0.23C172.45,458.31,172.3,458.3,172.27,458.36z"/>
										</g>
									</g>
								</g>
							</g>
						</g>
					</g>
					<g class="st11">
						<polygon points="171.73,457.12 190.97,457.39 191.01,455.07 171.62,455.9 						"/>
					</g>
				</g>
				<g>
					<g>
						<g>
							<g>
								<g>
									<g>
										<g>
											<path class="st9" d="M221.28,460.76l-0.03-10.28l-19.26-0.07l-0.12,15.04l1.19,0.08c5.31,0.31,27.03,1.22,30.59,0.16
												C237.63,464.5,221.28,460.76,221.28,460.76z"/>
										</g>
									</g>
								</g>
							</g>
							<g class="st10">
								<g>
									<g>
										<path class="st4" d="M229.27,462.87c0,0,5.73,1.68,5.01,2.62c-0.72,0.94-22.7,0.85-32.4-0.04l0.03-0.43l25.64,0.33
											C227.55,465.35,228.14,462.92,229.27,462.87z"/>
									</g>
								</g>
							</g>
							<g>
								<g>
									<g>
										<g>
											<path class="st7" d="M201.61,465.01c0,0.01,0.11,0.02,0.33,0.04c0.29,0.02,0.6,0.04,0.95,0.06
												c0.95,0.05,2.12,0.1,3.5,0.17c2.96,0.12,7.04,0.23,11.55,0.25c4.51,0.02,8.6-0.05,11.56-0.14
												c1.38-0.05,2.55-0.1,3.5-0.13c0.35-0.02,0.67-0.04,0.95-0.05c0.22-0.01,0.33-0.03,0.33-0.03c0-0.01-0.11-0.01-0.33-0.01
												c-0.29,0-0.6,0.01-0.95,0.01c-0.95,0.02-2.12,0.03-3.5,0.06c-2.96,0.05-7.04,0.09-11.55,0.07
												c-4.51-0.02-8.59-0.11-11.55-0.18c-1.38-0.04-2.55-0.07-3.5-0.09c-0.35-0.01-0.67-0.01-0.95-0.02
												C201.72,464.99,201.61,465,201.61,465.01z"/>
										</g>
									</g>
								</g>
							</g>
							<g>
								<g>
									<g>
										<g>
											<path class="st7" d="M227.55,465.65c0.07,0.01,0.13-0.83,0.66-1.67c0.52-0.85,1.24-1.28,1.2-1.33
												c-0.01-0.06-0.84,0.3-1.4,1.21C227.44,464.76,227.49,465.66,227.55,465.65z"/>
										</g>
									</g>
								</g>
							</g>
							<g>
								<g>
									<g>
										<g>
											<path class="st7" d="M221.88,462.74c0.05,0.03,0.33-0.29,0.61-0.74c0.28-0.44,0.47-0.83,0.41-0.86
												c-0.05-0.03-0.33,0.29-0.61,0.74C222.01,462.32,221.82,462.7,221.88,462.74z"/>
										</g>
									</g>
								</g>
							</g>
							<g>
								<g>
									<g>
										<g>
											<path class="st7" d="M220.32,461.91c0.04,0.05,0.35-0.15,0.68-0.45c0.33-0.3,0.57-0.58,0.53-0.62
												c-0.04-0.05-0.35,0.15-0.68,0.45C220.51,461.58,220.28,461.86,220.32,461.91z"/>
										</g>
									</g>
								</g>
							</g>
							<g>
								<g>
									<g>
										<g>
											<path class="st7" d="M219.34,460.09c0,0.06,0.45,0.12,1,0.13c0.56,0.01,1.01-0.04,1.01-0.1c0-0.06-0.45-0.12-1-0.13
												C219.8,459.98,219.34,460.02,219.34,460.09z"/>
										</g>
									</g>
								</g>
							</g>
							<g>
								<g>
									<g>
										<g>
											<path class="st7" d="M219.01,458.8c-0.02,0.06,0.47,0.28,1.12,0.33c0.65,0.05,1.17-0.09,1.16-0.15
												c-0.01-0.07-0.52-0.03-1.14-0.08C219.53,458.85,219.03,458.74,219.01,458.8z"/>
										</g>
									</g>
								</g>
							</g>
							<g>
								<g>
									<g>
										<g>
											<path class="st7" d="M222.54,461.06c0,0.03,0.47,0.09,1.24,0c0.38-0.04,0.83-0.13,1.32-0.28
												c0.24-0.08,0.49-0.15,0.76-0.31c0.12-0.08,0.26-0.2,0.31-0.38c0.05-0.19-0.05-0.39-0.19-0.5
												c-1.18-0.62-2.37,0.04-2.81,0.65c-0.24,0.31-0.35,0.61-0.41,0.82c-0.05,0.21-0.05,0.33-0.03,0.33
												c0.04,0.02,0.09-0.49,0.57-1.05c0.24-0.28,0.6-0.55,1.06-0.68c0.44-0.13,1.06-0.16,1.47,0.11
												c0.2,0.15,0.12,0.38-0.1,0.51c-0.2,0.13-0.47,0.21-0.7,0.29c-0.47,0.16-0.91,0.26-1.28,0.33
												C223.01,461.03,222.54,461.02,222.54,461.06z"/>
										</g>
									</g>
								</g>
							</g>
							<g>
								<g>
									<g>
										<g>
											<path class="st7" d="M222.86,461.12c0.02,0.01,0.2-0.3,0.15-0.86c-0.03-0.27-0.13-0.6-0.33-0.91
												c-0.22-0.28-0.5-0.66-1.03-0.64c-0.29,0.04-0.43,0.36-0.38,0.57c0.02,0.22,0.12,0.4,0.21,0.55
												c0.18,0.31,0.39,0.56,0.58,0.75c0.39,0.38,0.69,0.53,0.71,0.5c0.02-0.03-0.25-0.22-0.59-0.62
												c-0.17-0.2-0.35-0.45-0.51-0.74c-0.17-0.26-0.28-0.73,0.03-0.79c0.31-0.03,0.62,0.28,0.81,0.53
												c0.19,0.27,0.3,0.56,0.35,0.81C222.93,460.79,222.82,461.12,222.86,461.12z"/>
										</g>
									</g>
								</g>
							</g>
							<g>
								<g>
									<g>
										<g>
											<path class="st7" d="M202.02,459.74c0,0.04,0.55-0.05,1.42,0.06c0.86,0.1,2.06,0.46,3.1,1.29
												c1.04,0.84,1.65,1.93,1.93,2.75c0.29,0.83,0.32,1.38,0.36,1.38c0.01,0,0.02-0.14,0-0.39c-0.02-0.25-0.08-0.61-0.21-1.04
												c-0.25-0.86-0.86-2.01-1.94-2.88c-1.08-0.87-2.34-1.22-3.23-1.27c-0.45-0.03-0.81-0.01-1.06,0.02
												C202.15,459.69,202.02,459.72,202.02,459.74z"/>
										</g>
									</g>
								</g>
							</g>
							<g>
								<g>
									<g>
										<g>
											<path class="st7" d="M204.05,451.73c-0.06,0-0.15,1.77-0.18,3.95c-0.04,2.19-0.01,3.96,0.05,3.96
												c0.06,0,0.15-1.77,0.18-3.95C204.14,453.51,204.12,451.74,204.05,451.73z"/>
										</g>
									</g>
								</g>
							</g>
							<g>
								<g>
									<g>
										<g>
											<path class="st7" d="M211.29,463.46c-0.01,0.06,1.25,0.27,2.81,0.29c1.57,0.02,2.82-0.15,2.82-0.21
												c-0.01-0.07-1.26,0-2.81-0.02C212.55,463.5,211.3,463.39,211.29,463.46z"/>
										</g>
									</g>
								</g>
							</g>
							<g>
								<g>
									<g>
										<g>
											<path class="st7" d="M207.52,463.43c-0.05,0.05,0.1,0.27,0.23,0.56c0.13,0.29,0.2,0.55,0.26,0.54
												c0.06,0,0.1-0.3-0.05-0.64C207.81,463.56,207.56,463.39,207.52,463.43z"/>
										</g>
									</g>
								</g>
							</g>
							<g>
								<g>
									<g>
										<g>
											<path class="st7" d="M206.1,461.66c-0.05,0.04,0.08,0.25,0.28,0.45c0.2,0.2,0.4,0.33,0.44,0.29
												c0.05-0.04-0.08-0.25-0.28-0.45C206.35,461.74,206.15,461.61,206.1,461.66z"/>
										</g>
									</g>
								</g>
							</g>
							<g>
								<g>
									<g>
										<g>
											<path class="st7" d="M204.07,460.84c0.01,0.07,0.27,0.06,0.55,0.17c0.28,0.09,0.49,0.25,0.54,0.21
												c0.05-0.04-0.11-0.31-0.46-0.43C204.35,460.66,204.05,460.78,204.07,460.84z"/>
										</g>
									</g>
								</g>
							</g>
							<g>
								<g>
									<g>
										<g>
											<path class="st7" d="M202.62,460.45c-0.02,0.06,0.09,0.16,0.25,0.22c0.16,0.06,0.31,0.06,0.33,0
												c0.02-0.06-0.09-0.16-0.25-0.22C202.79,460.4,202.65,460.39,202.62,460.45z"/>
										</g>
									</g>
								</g>
							</g>
						</g>
					</g>
					<g class="st11">
						<polygon points="202.05,459.22 221.29,458.98 221.27,456.67 201.9,458 						"/>
					</g>
				</g>
				<g>
					<g>
						<path class="st12" d="M178.76,284.79l7.71,23.22c2.08,6.27,7.56,7.34,14.17,7.34h42.89v-9.62l-39.19-5.6l-9.34-23.86
							L178.76,284.79z"/>
					</g>
					<g>
						<g>
							<path class="st12" d="M248.25,303.73l3.4-1.61c0,0,3.67-7.09,4.51-6.81c0.85,0.28,1.09,2.37-0.39,5.63l4.52-1.29
								c0,0,9.8,4.53,9.37,5.14c-0.43,0.61-1.24,2.05-3.37,0.96c-2.14-1.09-4.93-2.37-4.93-2.37l-5.28,1.51l6.81,0.86l6.41,5.83
								c0,0-2.1,1.57-3.92-0.1l-16.64,3.57l-5.21,0.29v-9.62L248.25,303.73z"/>
						</g>
						<g>
							<g>
								<path class="st13" d="M265.38,311.49c-0.07,0.05-0.38-0.45-0.98-1.1c-0.3-0.32-0.71-0.66-1.21-0.94
									c-0.48-0.27-1.11-0.39-1.8-0.47c-2.77-0.33-5.01-0.71-4.99-0.85c0.02-0.14,2.28,0.01,5.06,0.34
									c0.7,0.08,1.41,0.22,1.97,0.57c0.54,0.33,0.96,0.73,1.25,1.11C265.25,310.91,265.43,311.46,265.38,311.49z"/>
							</g>
						</g>
						<g>
							<g>
								<path class="st13" d="M262.78,312.15c-0.06,0-0.11-0.34-0.58-0.44c-0.48-0.09-1.23-0.18-2.02-0.26
									c-1.6-0.16-2.91-0.15-2.92-0.3c-0.02-0.14,1.32-0.39,2.98-0.22c0.83,0.09,1.54,0.22,2.09,0.43
									c0.29,0.12,0.47,0.35,0.51,0.52C262.87,312.07,262.81,312.16,262.78,312.15z"/>
							</g>
						</g>
					</g>
				</g>
				<g>
					<g>
						<g>
							<g>
								<g>
									<g>
										<g>
											<path class="st12" d="M142.55,189.32l-2.33,47.18l20.2,1.9l1.12-11.45c0,0,7.12,1.76,9.29-4.83
												c1.38-4.21,2.61-37.19,2.61-37.19L142.55,189.32z"/>
										</g>
									</g>
									<g>
										<g>
											<path class="st7" d="M175.18,190.44c0.56,4.41-5.61,6.97-5.61,6.97l-1.08,10.44c-0.86-0.14-2.9-0.03-2.9-0.03
												c0.52-4.9-5.79-3.94-6.43-0.6c-0.62,3.21,3.04,5.36,3.04,5.36c-2.53,3.88-3.55,5.92-7.14,9.55
												c-3.88,3.93-5.97,4.25-9.97,4.13l-4.41-0.2c0,0-1.57-3.77-2.72-12.67c-0.55-4.28-3.9-9.9-2.95-16.86
												c2.7-19.79,21.67-17.7,21.67-17.7C166.51,179.1,173.88,180.2,175.18,190.44z"/>
										</g>
									</g>
								</g>
							</g>
						</g>
						<g>
							<path class="st7" d="M160.65,179.4c4.28,0.11,8.72,0.45,12.48,2.5c3.76,2.05,6.66,6.27,5.89,10.49
								c-0.71,0.13-1.43,0.26-2.14,0.38c-0.29-0.53-0.59-1.05-0.88-1.58c0.01,0.84,0.02,1.68,0.03,2.52
								c-1.26,0.35-2.51,0.7-3.77,1.05c-0.56-3.2-1.69-6.3-3.33-9.11"/>
						</g>
					</g>
					<g>
						<g>
							<path class="st8" d="M143.36,201.11c-0.03,0.01-0.16-0.25-0.33-0.74c-0.18-0.49-0.38-1.22-0.54-2.15
								c-0.33-1.84-0.37-4.51,0.48-7.26c0.85-2.76,2.39-4.94,3.69-6.27c0.65-0.67,1.23-1.16,1.66-1.47
								c0.42-0.31,0.67-0.45,0.69-0.42c0.06,0.07-0.87,0.76-2.08,2.14c-1.21,1.37-2.64,3.51-3.47,6.18
								c-0.82,2.67-0.84,5.25-0.62,7.06C143.07,199.99,143.44,201.08,143.36,201.11z"/>
						</g>
					</g>
					<g>
						<g>
							<path class="st8" d="M147.33,199.46c-0.05,0.02-0.45-0.88-0.8-2.42c-0.35-1.54-0.6-3.73-0.39-6.14
								c0.21-2.41,0.84-4.53,1.45-5.98c0.61-1.46,1.15-2.27,1.2-2.24c0.17,0.06-1.75,3.53-2.13,8.27
								C146.22,195.68,147.51,199.43,147.33,199.46z"/>
						</g>
					</g>
					<g>
						<g>
							<path class="st8" d="M173.12,192.14c-0.1,0.02-0.27-1.22-1.09-3.02c-0.8-1.79-2.38-4.12-4.87-5.81
								c-2.49-1.68-5.25-2.28-7.2-2.36c-1.98-0.09-3.19,0.21-3.21,0.11c-0.01-0.03,0.29-0.14,0.84-0.25
								c0.55-0.12,1.37-0.23,2.38-0.23c2.01-0.02,4.89,0.54,7.49,2.3c2.59,1.76,4.18,4.22,4.91,6.1c0.38,0.94,0.58,1.74,0.67,2.29
								C173.14,191.83,173.15,192.14,173.12,192.14z"/>
						</g>
					</g>
					<g>
						<g>
							<path class="st7" d="M143.98,175.58c0.03-0.13,1.56,0.35,2.9,1.71c1.36,1.35,1.82,2.88,1.7,2.91
								c-0.14,0.06-0.79-1.28-2.07-2.54C145.25,176.38,143.91,175.73,143.98,175.58z"/>
						</g>
					</g>
					<g>
						<g>
							<path class="st8" d="M148.7,175.6c0.14,0.05-0.16,1.1-0.1,2.41c0.04,1.31,0.42,2.34,0.28,2.4c-0.12,0.07-0.75-0.94-0.8-2.38
								C148.02,176.6,148.58,175.54,148.7,175.6z"/>
						</g>
					</g>
				</g>
				<g>
					<g>
						<g>
							<g>
								<g>
									<g>
										<g>
											<path class="st9" d="M175.13,279.73l3.3,11.17l20.94-9.48c-0.75-2.34-4.22-12.76-10.84-29.3
												c-3.69-9.21-11.91-15.86-21.7-17.49c-6.85-1.14-14.31-2.03-20.05-1.97c-11.74,0.13-29.02,7.47-31.34,18.98
												c-1.77,8.78-0.06,24.29-0.06,43.14l1.53,36l60.16,2.04L175.13,279.73z"/>
										</g>
									</g>
								</g>
							</g>
						</g>
						<g class="st11">
							<g>
								<path d="M115.43,286.45c7.32,1.5,14.84-0.01,22.3-0.45c4.52-0.27,9.54-0.76,13.12,2.02c2.84,2.2,3.98,5.91,4.8,9.41
									c3.12,13.33,3.69,22.27,4.39,35.94l-36.21,2.2L115.43,286.45z"/>
							</g>
						</g>
					</g>
					<g>
						<g>
							<path class="st6" d="M186.76,248.68c0,0.14-15.79,0.26-35.27,0.26c-19.49,0-35.28-0.12-35.28-0.26
								c0-0.14,15.79-0.26,35.28-0.26C170.96,248.42,186.76,248.54,186.76,248.68z"/>
						</g>
					</g>
					<g>
						<g>
							<path class="st6" d="M191.15,258.79c0,0.14-17.17,0.26-38.35,0.26c-21.18,0-38.35-0.12-38.35-0.26
								c0-0.14,17.17-0.26,38.35-0.26C173.98,258.53,191.15,258.65,191.15,258.79z"/>
						</g>
					</g>
					<g>
						<g>
							<path class="st6" d="M196.66,271.47c0,0.14-18.32,0.26-40.92,0.26c-22.61,0-40.92-0.12-40.92-0.26
								c0-0.14,18.32-0.26,40.92-0.26C178.34,271.21,196.66,271.33,196.66,271.47z"/>
						</g>
					</g>
					<g>
						<g>
							<path class="st6" d="M174.67,285.15c0,0.14-5.72,0.26-12.78,0.26c-7.06,0-12.78-0.12-12.78-0.26s5.72-0.26,12.78-0.26
								C168.94,284.89,174.67,285,174.67,285.15z"/>
						</g>
					</g>
					<g>
						<g>
							<path class="st6" d="M175.86,299.97c0,0.14-5.99,0.21-13.38,0.15c-7.39-0.06-13.38-0.23-13.38-0.37
								c0-0.14,5.99-0.21,13.38-0.15C169.87,299.66,175.86,299.83,175.86,299.97z"/>
						</g>
					</g>
					<g>
						<g>
							<path class="st6" d="M176.44,312.05c0,0.04-0.38,0.05-1.06,0.04c-0.79-0.01-1.75-0.03-2.87-0.05
								c-2.42-0.06-5.76-0.12-9.45-0.12c-3.69,0-7.03,0.06-9.45,0.11c-1.12,0.02-2.07,0.04-2.87,0.05
								c-0.68,0.01-1.05-0.01-1.06-0.04c0-0.04,0.37-0.09,1.04-0.16c0.67-0.07,1.65-0.14,2.86-0.22c2.42-0.15,5.77-0.27,9.47-0.27
								c3.7,0,7.05,0.13,9.47,0.28c1.21,0.07,2.19,0.15,2.86,0.22C176.07,311.96,176.44,312.02,176.44,312.05z"/>
						</g>
					</g>
					<g>
						<g>
							<path class="st6" d="M176.25,321.81c0,0.14-5.9,0.26-13.18,0.26c-7.28,0-13.18-0.12-13.18-0.26s5.9-0.26,13.18-0.26
								C170.35,321.55,176.25,321.66,176.25,321.81z"/>
						</g>
					</g>
					<g>
						<g>
							<path class="st6" d="M178.04,238.77c0,0.14-11.58,0.26-25.86,0.26c-14.29,0-25.86-0.12-25.86-0.26s11.58-0.26,25.86-0.26
								C166.46,238.51,178.04,238.63,178.04,238.77z"/>
						</g>
					</g>
					<g>
						<g>
							<path class="st7" d="M176.67,240.65c0.01,0.05-0.6,0.09-1.6,0.48c-0.98,0.4-2.33,1.26-3.46,2.81
								c-1.15,1.53-1.92,3.74-2.07,6.27c-0.18,2.53,0.2,5.33,0.63,8.25c0.93,5.83,2.35,11.01,3.36,14.75
								c0.5,1.81,0.91,3.3,1.22,4.43c0.28,1.05,0.42,1.63,0.39,1.64c-0.03,0.01-0.24-0.55-0.58-1.59c-0.34-1.03-0.82-2.53-1.38-4.39
								c-1.1-3.72-2.59-8.89-3.52-14.77c-0.44-2.93-0.8-5.76-0.6-8.36c0.18-2.59,1.02-4.9,2.25-6.45c1.21-1.58,2.65-2.42,3.69-2.77
								c0.52-0.17,0.94-0.25,1.23-0.28C176.52,240.64,176.67,240.63,176.67,240.65z"/>
						</g>
					</g>
					<g>
						<g>
							<path class="st7" d="M198.71,278.57c0.03,0.06-1.09,0.72-2.95,1.69c-1.86,0.97-4.46,2.26-7.38,3.57
								c-2.92,1.32-5.61,2.42-7.57,3.17c-1.96,0.75-3.19,1.16-3.22,1.09c-0.03-0.07,1.16-0.6,3.08-1.43
								c1.92-0.83,4.58-1.99,7.49-3.3c2.91-1.31,5.53-2.54,7.43-3.43C197.49,279.05,198.67,278.51,198.71,278.57z"/>
						</g>
					</g>
				</g>
				<g>
					<g>
						<path class="st7" d="M135.5,331.36l71.88,2.54c11.67,0.41,20.86,10.09,20.68,21.76l-2.98,102.66l-27.77-0.92l2.06-96.12
							l-63.87-1.68V331.36z"/>
					</g>
					<g>
						<path class="st7" d="M105.81,331.36l71.88,2.54c11.67,0.41,20.86,10.09,20.68,21.76l-2.98,102.66l-28.13-2.24l2.43-94.8
							l-63.87-1.68V331.36z"/>
					</g>
				</g>
				<g>
					<g>
						<g>
							<g>
								<rect x="152.53" y="368.65" class="st8" width="7.07" height="84.71"/>
							</g>
							<g>
								<g>
									<path class="st8" d="M93.21,286.43v62.36c0,8.18,6.63,14.81,14.81,14.81h41.52v-77.17c0-3.64-2.95-6.6-6.6-6.6H99.81
										C96.16,279.83,93.21,282.78,93.21,286.43z"/>
								</g>
								<g>
									<path class="st8" d="M205.43,368.65H104.3l0,0c0-6.06,4.91-10.98,10.98-10.98h79.17
										C200.51,357.68,205.43,362.59,205.43,368.65L205.43,368.65z"/>
								</g>
							</g>
							<g>
								<g>
									<path class="st7" d="M149.54,356.22c0.02,0,0.03,0.16,0.03,0.48c0.01,0.31-0.03,0.78-0.16,1.36
										c-0.25,1.15-0.98,2.86-2.71,4.2c-0.86,0.65-1.95,1.21-3.21,1.43c-1.28,0.21-2.6,0.11-4,0.15c-2.8,0.01-5.87,0.02-9.09,0.03
										c-6.45,0.01-12.28-0.02-16.51-0.06c-2.05-0.03-3.74-0.06-5-0.08c-0.54-0.02-0.99-0.03-1.36-0.05
										c-0.31-0.02-0.47-0.03-0.47-0.05c0-0.02,0.16-0.04,0.47-0.05c0.37-0.01,0.82-0.03,1.36-0.05c1.26-0.02,2.95-0.05,5-0.09
										c4.22-0.05,10.06-0.09,16.51-0.09c3.22,0,6.28,0.01,9.09,0.01c1.39-0.02,2.74,0.09,3.92-0.1c1.2-0.18,2.23-0.7,3.06-1.3
										c1.67-1.24,2.44-2.85,2.73-3.96C149.51,356.88,149.48,356.22,149.54,356.22z"/>
								</g>
							</g>
							<g>
								<g>
									<path class="st7" d="M162.27,368.87c0,0.14-2.78,0.26-6.2,0.26c-3.43,0-6.2-0.12-6.2-0.26c0-0.14,2.78-0.26,6.2-0.26
										C159.49,368.61,162.27,368.73,162.27,368.87z"/>
								</g>
							</g>
						</g>
						<g>
							<g>
								<path class="st8" d="M193.03,364.14c-0.07,0.01-0.29-1.05-0.63-2.97c-0.34-1.92-0.79-4.71-1.33-8.15
									c-0.58-3.44-0.91-7.61-2.81-11.74c-0.95-2.05-2.21-4.09-3.76-6c-1.57-1.9-3.48-3.61-5.64-5.08
									c-2.16-1.46-4.48-2.59-6.83-3.29c-2.35-0.71-4.7-1.17-6.97-1.2c-4.58-0.11-8.75-0.09-12.23-0.15
									c-3.49-0.05-6.31-0.1-8.26-0.17c-1.95-0.06-3.03-0.13-3.03-0.2s1.08-0.14,3.03-0.2c1.95-0.06,4.77-0.12,8.26-0.17
									c3.49-0.03,7.62-0.13,12.26-0.07c2.35,0.01,4.8,0.46,7.24,1.19c2.45,0.72,4.87,1.88,7.11,3.4c2.24,1.52,4.23,3.31,5.84,5.29
									c1.6,1.99,2.88,4.12,3.85,6.26c0.23,0.54,0.42,1.09,0.63,1.62c0.1,0.27,0.2,0.53,0.3,0.8c0.08,0.27,0.15,0.54,0.23,0.81
									c0.15,0.53,0.29,1.06,0.44,1.58c0.1,0.53,0.19,1.05,0.28,1.56c0.36,2.05,0.54,3.93,0.78,5.66c0.44,3.46,0.79,6.26,1,8.2
									C193.02,363.05,193.11,364.13,193.03,364.14z"/>
							</g>
						</g>
					</g>
					<g>
						<path class="st8" d="M186.99,461.04h-1c0-16.59-13.5-30.08-30.08-30.08c-16.59,0-30.08,13.5-30.08,30.08h-1
							c0-17.14,13.94-31.08,31.08-31.08C173.05,429.95,186.99,443.9,186.99,461.04z"/>
					</g>
					<g>
						<path class="st7" d="M129.98,462.58c0,2.57-2.09,4.66-4.66,4.66c-2.57,0-4.66-2.09-4.66-4.66c0-2.57,2.09-4.66,4.66-4.66
							C127.9,457.92,129.98,460.01,129.98,462.58z"/>
					</g>
					<g>
						<path class="st7" d="M191.39,461.94c0,2.57-2.09,4.66-4.66,4.66s-4.66-2.09-4.66-4.66c0-2.57,2.09-4.66,4.66-4.66
							S191.39,459.37,191.39,461.94z"/>
					</g>
					<g>
						<g>
							<path class="st8" d="M186.69,453.36c0,0.14-13.53,0.26-30.21,0.26c-16.69,0-30.21-0.12-30.21-0.26s13.52-0.26,30.21-0.26
								C173.16,453.1,186.69,453.22,186.69,453.36z"/>
						</g>
					</g>
				</g>
			</g>
		</g>
	</g>
</g>
<g id="Plants">
	<g>
		<g>
			<g>
				<g>
					<path class="st9" d="M83.49,258.77c1.51,0.88,2.51,2.48,2.9,4.18c0.4,1.7,0.24,3.48-0.16,5.18c-0.77,3.29-3.05,6.43-5.4,8.85
						c-2.52-2.77-2.66-7.12-2.6-9.33C78.34,264.16,80.64,257.91,83.49,258.77"/>
				</g>
			</g>
			<g>
				<g>
					<path class="st9" d="M83.45,282.85c-0.23-1.93,0.8-3.91,2.39-5.03c1.59-1.12,3.68-1.43,5.59-1.05
						c0.88,0.17,1.82,0.55,2.24,1.34c0.4,0.74,0.23,1.69-0.24,2.39c-0.47,0.7-1.21,1.17-1.97,1.53
						C88.85,283.27,86.1,284,83.45,282.85"/>
				</g>
			</g>
			<g>
				<g>
					<g>
						<path class="st7" d="M79.23,290.17c-0.04-0.02,0.17-0.84,0.63-2.14c0.23-0.65,0.61-1.41,1.11-2.17
							c0.51-0.76,1.05-1.6,1.75-2.41c1.38-1.62,3.05-2.7,4.36-3.17c0.65-0.25,1.21-0.36,1.59-0.42c0.39-0.04,0.6-0.05,0.6-0.02
							c0.01,0.07-0.84,0.16-2.09,0.69c-1.24,0.53-2.83,1.6-4.17,3.17c-0.68,0.78-1.22,1.61-1.74,2.35
							c-0.51,0.74-0.89,1.45-1.15,2.08C79.59,289.39,79.29,290.19,79.23,290.17z"/>
					</g>
				</g>
			</g>
			<g>
				<g>
					<g>
						<path class="st7" d="M82.15,263.68c0.03,0,0.02,0.4-0.02,1.13c-0.04,0.72-0.1,1.77-0.2,3.07c-0.19,2.59-0.49,6.16-0.92,10.09
							c-0.43,3.94-0.92,7.49-1.33,10.05c-0.2,1.28-0.38,2.32-0.52,3.03c-0.14,0.71-0.22,1.1-0.25,1.1c-0.03,0,0.01-0.4,0.1-1.12
							c0.1-0.79,0.24-1.81,0.4-3.04c0.34-2.57,0.79-6.12,1.22-10.05c0.4-3.9,0.76-7.43,1.03-10.08c0.13-1.24,0.24-2.27,0.32-3.05
							C82.07,264.07,82.13,263.67,82.15,263.68z"/>
					</g>
				</g>
			</g>
			<g>
				<g>
					<path class="st9" d="M79.07,283.64c-0.73-4.04-3.54-7.65-7.28-9.34c-0.95-0.43-2.19-0.7-2.95,0.02
						c-0.76,0.72-0.56,1.98-0.16,2.94c1.67,4.03,5.98,6.8,10.33,6.66"/>
				</g>
			</g>
			<g>
				<g>
					<g>
						<path class="st7" d="M72.52,277.27c0.01-0.02,0.2,0.07,0.53,0.26c0.33,0.18,0.8,0.48,1.36,0.87c1.1,0.79,2.63,1.97,3.81,3.73
							c0.58,0.88,0.98,1.82,1.21,2.7c0.24,0.89,0.27,1.72,0.26,2.4c-0.03,0.69-0.1,1.24-0.19,1.61c-0.08,0.37-0.14,0.58-0.16,0.57
							c-0.07-0.01,0.1-0.84,0.08-2.18c-0.03-0.67-0.09-1.47-0.33-2.31c-0.24-0.84-0.63-1.74-1.19-2.58c-1.13-1.7-2.6-2.89-3.65-3.73
							C73.18,277.79,72.49,277.32,72.52,277.27z"/>
					</g>
				</g>
			</g>
		</g>
		<g>
			<g>
				<g>
					<path class="st7" d="M78.75,315.36L78.75,315.36c-6.91,0-12.5-5.6-12.5-12.5v-12.5h25.01v12.5
						C91.25,309.76,85.65,315.36,78.75,315.36z"/>
				</g>
			</g>
			<g>
				<g>
					<g>
						<path class="st3" d="M91.25,296.5c0.01,0.01-0.11,0.14-0.34,0.35c-0.28,0.25-0.62,0.56-1.03,0.93
							c-0.97,0.83-2.25,1.94-3.77,3.25l-0.09,0.08l-0.11-0.06c-2.1-1.26-4.58-2.75-7.25-4.36l-0.01-0.01l0.22,0
							c-2.47,1.6-4.78,3.1-6.74,4.37l-0.11,0.07l-0.1-0.08c-1.68-1.31-3.09-2.42-4.15-3.25c-0.45-0.37-0.83-0.68-1.14-0.93
							c-0.26-0.22-0.39-0.34-0.38-0.36c0.01-0.01,0.17,0.08,0.45,0.27c0.33,0.23,0.72,0.51,1.2,0.85c1.08,0.8,2.53,1.87,4.24,3.13
							l-0.2-0.01c1.95-1.29,4.25-2.8,6.71-4.42l0.11-0.07l0.11,0.07l0.01,0.01c2.66,1.63,5.13,3.14,7.21,4.42l-0.2,0.02
							c1.56-1.27,2.88-2.33,3.87-3.14c0.43-0.34,0.8-0.62,1.09-0.85C91.1,296.58,91.24,296.48,91.25,296.5z"/>
					</g>
				</g>
			</g>
			<g>
				<g>
					<g>
						<path class="st3" d="M91.25,294c0.01,0.01-0.11,0.14-0.34,0.35c-0.28,0.25-0.62,0.56-1.03,0.93
							c-0.97,0.83-2.25,1.94-3.77,3.25l-0.09,0.08l-0.11-0.06c-2.1-1.26-4.58-2.75-7.25-4.36l-0.01-0.01l0.22,0
							c-2.47,1.6-4.78,3.1-6.74,4.37l-0.11,0.07l-0.1-0.08c-1.68-1.31-3.09-2.42-4.15-3.25c-0.45-0.37-0.83-0.68-1.14-0.93
							c-0.26-0.22-0.39-0.34-0.38-0.36c0.01-0.01,0.17,0.08,0.45,0.27c0.33,0.23,0.72,0.51,1.2,0.85c1.08,0.8,2.53,1.87,4.24,3.13
							l-0.2-0.01c1.95-1.29,4.25-2.8,6.71-4.42l0.11-0.07l0.11,0.07l0.01,0.01c2.66,1.63,5.13,3.14,7.21,4.42l-0.2,0.02
							c1.56-1.27,2.88-2.33,3.87-3.14c0.43-0.34,0.8-0.62,1.09-0.85C91.1,294.08,91.24,293.98,91.25,294z"/>
					</g>
				</g>
			</g>
			<g>
				<g>
					<g>
						<path class="st3" d="M91.25,299.04c0.01,0.01-0.11,0.14-0.34,0.35c-0.28,0.25-0.62,0.56-1.03,0.93
							c-0.97,0.83-2.25,1.94-3.77,3.25l-0.09,0.08l-0.11-0.06c-2.1-1.26-4.58-2.75-7.25-4.36l-0.01-0.01l0.22,0
							c-2.47,1.6-4.78,3.1-6.74,4.37l-0.11,0.07l-0.1-0.08c-1.68-1.31-3.09-2.42-4.15-3.25c-0.45-0.37-0.83-0.68-1.14-0.93
							c-0.26-0.22-0.39-0.34-0.38-0.36c0.01-0.01,0.17,0.08,0.45,0.27c0.33,0.23,0.72,0.51,1.2,0.85c1.08,0.8,2.53,1.87,4.24,3.13
							l-0.2-0.01c1.95-1.29,4.25-2.8,6.71-4.42l0.11-0.07l0.11,0.07l0.01,0.01c2.66,1.63,5.13,3.14,7.21,4.42l-0.2,0.01
							c1.56-1.27,2.88-2.33,3.87-3.14c0.43-0.34,0.8-0.62,1.09-0.85C91.1,299.12,91.24,299.03,91.25,299.04z"/>
					</g>
				</g>
			</g>
		</g>
	</g>
	<g>
		<g>
			<g>
				<g>
					<g>
						<g>
							<path class="st9" d="M415.25,344.72c-5.18,0.83-7.5,7.2-7.05,12.43c0.45,5.23,2.6,10.34,2.03,15.56
								c-0.73,6.63-5.74,12.23-6.32,18.87c-0.69,7.83,4.85,14.78,6.5,22.46c0.8,3.74,0.69,7.69,2.08,11.26
								c2.35,6.01,9.23,9.86,15.58,8.73c6.35-1.13,11.47-7.14,11.6-13.58c0.11-6.01-3.6-11.68-3.15-17.67
								c0.33-4.43,2.93-8.63,2.38-13.04c-0.66-5.25-5.52-8.97-7.24-13.98c-1.72-5-0.07-10.52-0.66-15.78
								C429.94,350.54,424.71,343.97,415.25,344.72"/>
						</g>
					</g>
				</g>
			</g>
			<g>
				<g>
					<g>
						<g>
							<path class="st9" d="M388.79,390.39c-0.88,8.74,2.98,19.02,7.48,26.57c4.49,7.55,11.46,13.59,19.57,16.98
								c0.91,0.38,2.05,0.7,2.82,0.08c0.63-0.51,0.71-1.43,0.71-2.24c0.06-9.2-2.93-18.39-8.4-25.79
								C405.5,398.59,397.6,393.03,388.79,390.39"/>
						</g>
					</g>
				</g>
			</g>
			<g class="st14">
				<g>
					<g>
						<g>
							<path d="M388.79,390.39c-0.88,8.74,2.98,19.02,7.48,26.57c4.49,7.55,11.46,13.59,19.57,16.98c0.91,0.38,2.05,0.7,2.82,0.08
								c0.63-0.51,0.71-1.43,0.71-2.24c0.06-9.2-2.93-18.39-8.4-25.79C405.5,398.59,397.6,393.03,388.79,390.39"/>
						</g>
					</g>
				</g>
			</g>
			<g>
				<g>
					<g>
						<g>
							<g>
								<path class="st7" d="M426.86,452.21c-0.02,0.01-0.1-0.16-0.25-0.49c-0.16-0.38-0.37-0.85-0.62-1.43
									c-0.53-1.25-1.31-3.04-2.31-5.25c-2-4.41-4.95-10.42-8.68-16.8c-3.73-6.38-7.52-11.9-10.38-15.81
									c-1.43-1.95-2.61-3.52-3.44-4.59c-0.38-0.5-0.69-0.92-0.94-1.25c-0.21-0.29-0.32-0.44-0.3-0.46
									c0.01-0.01,0.14,0.12,0.38,0.39c0.27,0.31,0.6,0.71,1.01,1.19c0.88,1.03,2.1,2.57,3.57,4.5c2.94,3.86,6.78,9.37,10.53,15.77
									c3.73,6.4,6.65,12.45,8.57,16.91c0.96,2.23,1.7,4.05,2.17,5.32c0.22,0.59,0.4,1.08,0.54,1.47
									C426.82,452.03,426.87,452.21,426.86,452.21z"/>
							</g>
						</g>
					</g>
				</g>
			</g>
			<g>
				<g>
					<g>
						<g>
							<g>
								<path class="st7" d="M421.23,368.9c0.02,0,0.05,0.29,0.09,0.84c0.04,0.59,0.1,1.4,0.17,2.41c0.14,2.14,0.33,5.15,0.57,8.86
									c0.47,7.48,1.14,17.81,1.94,29.21c0.8,11.41,1.59,21.73,2.17,29.2c0.28,3.7,0.51,6.71,0.68,8.85
									c0.07,1.01,0.12,1.81,0.16,2.41c0.03,0.55,0.04,0.84,0.02,0.84c-0.02,0-0.06-0.29-0.12-0.83c-0.06-0.59-0.15-1.39-0.26-2.4
									c-0.2-2.13-0.49-5.14-0.83-8.84c-0.67-7.46-1.52-17.78-2.32-29.19c-0.8-11.41-1.41-21.74-1.79-29.23
									c-0.17-3.71-0.31-6.73-0.41-8.87c-0.03-1.01-0.06-1.82-0.08-2.41C421.21,369.19,421.21,368.9,421.23,368.9z"/>
							</g>
						</g>
					</g>
				</g>
			</g>
		</g>
		<g>
			<g>
				<g>
					<g>
						<path class="st7" d="M413.19,439.75h21.89v16.07c0,5.8-4.7,10.51-10.51,10.51l0,0c-5.58,0-10.19-4.37-10.49-9.95
							L413.19,439.75z"/>
					</g>
				</g>
			</g>
		</g>
	</g>
</g>
<g id="Lamp">
	<g>
		<g>
			<g>
				<g>
					<g>
						<polyline class="st9" points="302.33,227.89 354.53,256.79 352.57,260.48 300.83,231.03 302.33,227.89 						"/>
					</g>
				</g>
			</g>
			<g>
				<g>
					<g>
						<polygon class="st9" points="299.76,225.16 302.16,221.49 303.56,222.35 301.41,226.05 						"/>
					</g>
				</g>
			</g>
			<g>
				<g>
					<g>
						<polygon class="st9" points="348.6,252.23 351.28,253.77 342.54,309.54 338.41,309.6 						"/>
					</g>
				</g>
			</g>
			<g>
				<g>
					<g>
						<path class="st9" d="M326.38,315.36c0,0,6.36-6.44,14.89-5.97c8.53,0.47,12.9,5.93,12.9,5.93L326.38,315.36z"/>
					</g>
				</g>
			</g>
		</g>
		<g>
			<g>
				<path class="st9" d="M299.81,250.45l-20.67-11.93l5.97-10.33c3.29-5.71,10.59-7.66,16.3-4.37l0,0
					c5.71,3.29,7.66,10.59,4.37,16.3L299.81,250.45z"/>
			</g>
		</g>
	</g>
</g>
</svg>
