<svg width="1440" height="964" viewBox="0 0 1440 964" fill="none" xmlns="http://www.w3.org/2000/svg">
<g opacity="0.05" clip-path="url(#clip0)">
<path d="M1440 -3H-10V964H1440V-3Z" fill="#202040"/>
<path d="M607.333 699.409C661.863 699.409 706.068 655.189 706.068 600.64C706.068 546.091 661.863 501.871 607.333 501.871C552.803 501.871 508.597 546.091 508.597 600.64C508.597 655.189 552.803 699.409 607.333 699.409Z" fill="#6B6B6B"/>
<path d="M1353.14 1122.1C1440.42 1122.1 1511.19 1051.32 1511.19 964C1511.19 876.681 1440.42 805.896 1353.14 805.896C1265.85 805.896 1195.09 876.681 1195.09 964C1195.09 1051.32 1265.85 1122.1 1353.14 1122.1Z" fill="#6B6B6B"/>
<path d="M148.05 155.104C235.339 155.104 306.1 84.3187 306.1 -3C306.1 -90.3187 235.339 -161.104 148.05 -161.104C60.7614 -161.104 -10 -90.3187 -10 -3C-10 84.3187 60.7614 155.104 148.05 155.104Z" fill="#6B6B6B"/>
<path d="M738.703 -364.02L1103.46 0.867981" stroke="#FF96B0" stroke-width="2" stroke-miterlimit="10"/>
<path d="M738.703 -345.763L1103.46 19.125" stroke="#FF96B0" stroke-width="2" stroke-miterlimit="10"/>
<path d="M738.703 -327.487L1103.46 37.4012" stroke="#FF96B0" stroke-width="2" stroke-miterlimit="10"/>
<path d="M738.703 -309.21L1103.46 55.6582" stroke="#FF96B0" stroke-width="2" stroke-miterlimit="10"/>
<path d="M738.703 -290.953L1103.46 73.9345" stroke="#FF96B0" stroke-width="2" stroke-miterlimit="10"/>
<path d="M738.703 -272.677L1103.46 92.1914" stroke="#FF96B0" stroke-width="2" stroke-miterlimit="10"/>
<path d="M738.703 -254.42L1103.46 110.468" stroke="#FF96B0" stroke-width="2" stroke-miterlimit="10"/>
<path d="M738.703 -236.144L1103.46 128.725" stroke="#FF96B0" stroke-width="2" stroke-miterlimit="10"/>
<path d="M738.703 -217.887L1103.46 147.001" stroke="#FF96B0" stroke-width="2" stroke-miterlimit="10"/>
<path d="M738.703 -199.61L1103.46 165.277" stroke="#FF96B0" stroke-width="2" stroke-miterlimit="10"/>
<path d="M738.703 -181.354L1103.46 183.534" stroke="#FF96B0" stroke-width="2" stroke-miterlimit="10"/>
<path d="M738.703 -163.077L1103.46 201.811" stroke="#FF96B0" stroke-width="2" stroke-miterlimit="10"/>
<path d="M738.703 -144.801L1103.46 220.068" stroke="#FF96B0" stroke-width="2" stroke-miterlimit="10"/>
<path d="M738.703 -126.544L1103.46 238.344" stroke="#FF96B0" stroke-width="2" stroke-miterlimit="10"/>
<path d="M738.703 -108.268L1103.46 256.601" stroke="#FF96B0" stroke-width="2" stroke-miterlimit="10"/>
<path d="M738.703 -90.0107L1103.46 274.877" stroke="#FF96B0" stroke-width="2" stroke-miterlimit="10"/>
<path d="M738.703 -71.7344L1103.46 293.134" stroke="#FF96B0" stroke-width="2" stroke-miterlimit="10"/>
<path d="M738.703 -53.4774L1103.46 311.41" stroke="#FF96B0" stroke-width="2" stroke-miterlimit="10"/>
<path d="M738.703 -35.2011L1103.46 329.667" stroke="#FF96B0" stroke-width="2" stroke-miterlimit="10"/>
<path d="M738.703 -16.9442L1103.46 347.944" stroke="#FF96B0" stroke-width="2" stroke-miterlimit="10"/>
<path d="M738.703 1.33212L1103.46 366.22" stroke="#FF96B0" stroke-width="2" stroke-miterlimit="10"/>
<path d="M738.703 19.5891L1103.46 384.477" stroke="#FF96B0" stroke-width="2" stroke-miterlimit="10"/>
<path d="M738.703 37.8654L1103.46 402.753" stroke="#FF96B0" stroke-width="2" stroke-miterlimit="10"/>
<path d="M738.703 56.1417L1103.46 421.01" stroke="#FF96B0" stroke-width="2" stroke-miterlimit="10"/>
<path d="M1017.22 548.171L1381.98 913.058" stroke="#FF6C91" stroke-width="2" stroke-miterlimit="10"/>
<path d="M1017.22 566.447L1381.98 931.315" stroke="#FF6C91" stroke-width="2" stroke-miterlimit="10"/>
<path d="M1017.22 584.704L1381.98 949.592" stroke="#FF6C91" stroke-width="2" stroke-miterlimit="10"/>
<path d="M1017.22 602.98L1381.98 967.868" stroke="#FF6C91" stroke-width="2" stroke-miterlimit="10"/>
<path d="M1017.22 621.237L1381.98 986.125" stroke="#FF6C91" stroke-width="2" stroke-miterlimit="10"/>
<path d="M1017.22 639.513L1381.98 1004.4" stroke="#FF6C91" stroke-width="2" stroke-miterlimit="10"/>
<path d="M1017.22 657.79L1381.98 1022.66" stroke="#FF6C91" stroke-width="2" stroke-miterlimit="10"/>
<path d="M1017.22 676.047L1381.98 1040.93" stroke="#FF6C91" stroke-width="2" stroke-miterlimit="10"/>
<path d="M1017.22 694.323L1381.98 1059.19" stroke="#FF6C91" stroke-width="2" stroke-miterlimit="10"/>
<path d="M1017.22 712.58L1381.98 1077.47" stroke="#FF6C91" stroke-width="2" stroke-miterlimit="10"/>
<path d="M1017.22 730.856L1381.98 1095.72" stroke="#FF6C91" stroke-width="2" stroke-miterlimit="10"/>
<path d="M1017.22 749.113L1381.98 1114" stroke="#FF6C91" stroke-width="2" stroke-miterlimit="10"/>
<path d="M1017.22 767.39L1381.98 1132.28" stroke="#FF6C91" stroke-width="2" stroke-miterlimit="10"/>
<path d="M1017.22 785.646L1381.98 1150.53" stroke="#FF6C91" stroke-width="2" stroke-miterlimit="10"/>
<path d="M1017.22 803.923L1381.98 1168.81" stroke="#FF6C91" stroke-width="2" stroke-miterlimit="10"/>
<path d="M1017.22 822.18L1381.98 1187.07" stroke="#FF6C91" stroke-width="2" stroke-miterlimit="10"/>
<path d="M1017.22 840.456L1381.98 1205.34" stroke="#FF6C91" stroke-width="2" stroke-miterlimit="10"/>
<path d="M1017.22 858.732L1381.98 1223.6" stroke="#FF6C91" stroke-width="2" stroke-miterlimit="10"/>
<path d="M1017.22 876.989L1381.98 1241.88" stroke="#FF6C91" stroke-width="2" stroke-miterlimit="10"/>
<path d="M1017.22 895.266L1381.98 1260.13" stroke="#FF6C91" stroke-width="2" stroke-miterlimit="10"/>
<path d="M1017.22 913.523L1381.98 1278.41" stroke="#FF6C91" stroke-width="2" stroke-miterlimit="10"/>
<path d="M1017.22 931.799L1381.98 1296.67" stroke="#FF6C91" stroke-width="2" stroke-miterlimit="10"/>
<path d="M1017.22 950.056L1381.98 1314.94" stroke="#FF6C91" stroke-width="2" stroke-miterlimit="10"/>
<path d="M297.381 174.715C297.381 171.853 297.381 169.01 297.381 166.496" stroke="#FF1E56" stroke-width="4" stroke-linecap="round" stroke-linejoin="round"/>
<path d="M280.947 158.276C278.086 158.276 275.244 158.276 272.731 158.276" stroke="#FF1E56" stroke-width="4" stroke-linecap="round" stroke-linejoin="round"/>
<path d="M264.514 141.837C264.514 138.975 264.514 136.132 264.514 133.618" stroke="#FF1E56" stroke-width="4" stroke-linecap="round" stroke-linejoin="round"/>
<path d="M248.081 125.398C245.219 125.398 242.377 125.398 239.864 125.398" stroke="#FF1E56" stroke-width="4" stroke-linecap="round" stroke-linejoin="round"/>
<path d="M231.647 108.959C231.647 106.097 231.647 103.254 231.647 100.74" stroke="#FF1E56" stroke-width="4" stroke-linecap="round" stroke-linejoin="round"/>
<path d="M215.214 92.5203C212.353 92.5203 209.511 92.5203 206.997 92.5203" stroke="#FF1E56" stroke-width="4" stroke-linecap="round" stroke-linejoin="round"/>
<path d="M198.781 76.0813C198.781 73.2189 198.781 70.376 198.781 67.8618" stroke="#FF1E56" stroke-width="4" stroke-linecap="round" stroke-linejoin="round"/>
<path d="M182.347 59.6423C179.486 59.6423 176.644 59.6423 174.131 59.6423" stroke="#FF1E56" stroke-width="4" stroke-linecap="round" stroke-linejoin="round"/>
<path d="M165.914 43.2033C165.914 40.3409 165.914 37.498 165.914 34.9838" stroke="#FF1E56" stroke-width="4" stroke-linecap="round" stroke-linejoin="round"/>
<path d="M149.481 26.7643H141.264" stroke="#FF1E56" stroke-width="4" stroke-linecap="round" stroke-linejoin="round"/>
<path d="M275.147 196.956C275.147 194.094 275.147 191.251 275.147 188.737" stroke="#FF1E56" stroke-width="4" stroke-linecap="round" stroke-linejoin="round"/>
<path d="M258.714 180.517C255.853 180.517 253.011 180.517 250.497 180.517" stroke="#FF1E56" stroke-width="4" stroke-linecap="round" stroke-linejoin="round"/>
<path d="M242.281 164.078C242.281 161.216 242.281 158.373 242.281 155.859" stroke="#FF1E56" stroke-width="4" stroke-linecap="round" stroke-linejoin="round"/>
<path d="M225.847 147.639C222.986 147.639 220.144 147.639 217.631 147.639" stroke="#FF1E56" stroke-width="4" stroke-linecap="round" stroke-linejoin="round"/>
<path d="M209.414 131.2C209.414 128.338 209.414 125.495 209.414 122.981" stroke="#FF1E56" stroke-width="4" stroke-linecap="round" stroke-linejoin="round"/>
<path d="M192.981 114.761C190.119 114.761 187.277 114.761 184.764 114.761" stroke="#FF1E56" stroke-width="4" stroke-linecap="round" stroke-linejoin="round"/>
<path d="M176.547 98.3223C176.547 95.46 176.547 92.617 176.547 90.1028" stroke="#FF1E56" stroke-width="4" stroke-linecap="round" stroke-linejoin="round"/>
<path d="M160.114 81.8833C157.253 81.8833 154.411 81.8833 151.897 81.8833" stroke="#FF1E56" stroke-width="4" stroke-linecap="round" stroke-linejoin="round"/>
<path d="M143.681 65.4443C143.681 62.5819 143.681 59.739 143.681 57.2248" stroke="#FF1E56" stroke-width="4" stroke-linecap="round" stroke-linejoin="round"/>
<path d="M127.247 49.0053H119.031" stroke="#FF1E56" stroke-width="4" stroke-linecap="round" stroke-linejoin="round"/>
<path d="M252.914 219.197C252.914 216.335 252.914 213.492 252.914 210.978" stroke="#FF1E56" stroke-width="4" stroke-linecap="round" stroke-linejoin="round"/>
<path d="M236.481 202.758C233.619 202.758 230.777 202.758 228.264 202.758" stroke="#FF1E56" stroke-width="4" stroke-linecap="round" stroke-linejoin="round"/>
<path d="M220.047 186.319C220.047 183.457 220.047 180.614 220.047 178.1" stroke="#FF1E56" stroke-width="4" stroke-linecap="round" stroke-linejoin="round"/>
<path d="M203.614 169.88C200.753 169.88 197.911 169.88 195.397 169.88" stroke="#FF1E56" stroke-width="4" stroke-linecap="round" stroke-linejoin="round"/>
<path d="M187.181 153.441C187.181 150.579 187.181 147.736 187.181 145.222" stroke="#FF1E56" stroke-width="4" stroke-linecap="round" stroke-linejoin="round"/>
<path d="M170.747 137.002C167.886 137.002 165.044 137.002 162.531 137.002" stroke="#FF1E56" stroke-width="4" stroke-linecap="round" stroke-linejoin="round"/>
<path d="M154.314 120.563C154.314 117.701 154.314 114.858 154.314 112.344" stroke="#FF1E56" stroke-width="4" stroke-linecap="round" stroke-linejoin="round"/>
<path d="M137.881 104.124C135.019 104.124 132.177 104.124 129.664 104.124" stroke="#FF1E56" stroke-width="4" stroke-linecap="round" stroke-linejoin="round"/>
<path d="M121.447 87.6853C121.447 84.8229 121.447 81.98 121.447 79.4658" stroke="#FF1E56" stroke-width="4" stroke-linecap="round" stroke-linejoin="round"/>
<path d="M105.014 71.2463H96.7973" stroke="#FF1E56" stroke-width="4" stroke-linecap="round" stroke-linejoin="round"/>
<path d="M1278.7 711.903C1278.7 709.041 1278.7 706.198 1278.7 703.684" stroke="#FF1E56" stroke-width="4" stroke-linecap="round" stroke-linejoin="round"/>
<path d="M1262.27 695.464C1259.41 695.464 1256.57 695.464 1254.05 695.464" stroke="#FF1E56" stroke-width="4" stroke-linecap="round" stroke-linejoin="round"/>
<path d="M1245.84 679.025C1245.84 676.163 1245.84 673.32 1245.84 670.806" stroke="#FF1E56" stroke-width="4" stroke-linecap="round" stroke-linejoin="round"/>
<path d="M1229.4 662.586C1226.54 662.586 1223.7 662.586 1221.19 662.586" stroke="#FF1E56" stroke-width="4" stroke-linecap="round" stroke-linejoin="round"/>
<path d="M1212.97 646.147C1212.97 643.285 1212.97 640.442 1212.97 637.928" stroke="#FF1E56" stroke-width="4" stroke-linecap="round" stroke-linejoin="round"/>
<path d="M1196.54 629.708C1193.67 629.708 1190.83 629.708 1188.32 629.708" stroke="#FF1E56" stroke-width="4" stroke-linecap="round" stroke-linejoin="round"/>
<path d="M1180.1 613.269C1180.1 610.407 1180.1 607.564 1180.1 605.05" stroke="#FF1E56" stroke-width="4" stroke-linecap="round" stroke-linejoin="round"/>
<path d="M1163.67 596.83H1155.45" stroke="#FF1E56" stroke-width="4" stroke-linecap="round" stroke-linejoin="round"/>
<path d="M1256.47 734.144C1256.47 731.282 1256.47 728.439 1256.47 725.925" stroke="#FF1E56" stroke-width="4" stroke-linecap="round" stroke-linejoin="round"/>
<path d="M1240.04 717.705C1237.17 717.705 1234.33 717.705 1231.82 717.705" stroke="#FF1E56" stroke-width="4" stroke-linecap="round" stroke-linejoin="round"/>
<path d="M1223.6 701.266C1223.6 698.404 1223.6 695.561 1223.6 693.047" stroke="#FF1E56" stroke-width="4" stroke-linecap="round" stroke-linejoin="round"/>
<path d="M1207.17 684.827C1204.31 684.827 1201.47 684.827 1198.95 684.827" stroke="#FF1E56" stroke-width="4" stroke-linecap="round" stroke-linejoin="round"/>
<path d="M1190.74 668.388C1190.74 665.526 1190.74 662.683 1190.74 660.169" stroke="#FF1E56" stroke-width="4" stroke-linecap="round" stroke-linejoin="round"/>
<path d="M1174.3 651.949C1171.44 651.949 1168.6 651.949 1166.09 651.949" stroke="#FF1E56" stroke-width="4" stroke-linecap="round" stroke-linejoin="round"/>
<path d="M1157.87 635.51C1157.87 632.648 1157.87 629.805 1157.87 627.291" stroke="#FF1E56" stroke-width="4" stroke-linecap="round" stroke-linejoin="round"/>
<path d="M1141.44 619.071H1133.22" stroke="#FF1E56" stroke-width="4" stroke-linecap="round" stroke-linejoin="round"/>
<path d="M1234.24 756.385C1234.24 753.523 1234.24 750.68 1234.24 748.166" stroke="#FF1E56" stroke-width="4" stroke-linecap="round" stroke-linejoin="round"/>
<path d="M1217.8 739.946C1214.94 739.946 1212.1 739.946 1209.59 739.946" stroke="#FF1E56" stroke-width="4" stroke-linecap="round" stroke-linejoin="round"/>
<path d="M1201.37 723.507C1201.37 720.645 1201.37 717.802 1201.37 715.288" stroke="#FF1E56" stroke-width="4" stroke-linecap="round" stroke-linejoin="round"/>
<path d="M1184.94 707.068C1182.07 707.068 1179.23 707.068 1176.72 707.068" stroke="#FF1E56" stroke-width="4" stroke-linecap="round" stroke-linejoin="round"/>
<path d="M1168.5 690.629C1168.5 687.767 1168.5 684.924 1168.5 682.41" stroke="#FF1E56" stroke-width="4" stroke-linecap="round" stroke-linejoin="round"/>
<path d="M1152.07 674.19C1149.21 674.19 1146.37 674.19 1143.85 674.19" stroke="#FF1E56" stroke-width="4" stroke-linecap="round" stroke-linejoin="round"/>
<path d="M1135.64 657.751C1135.64 654.889 1135.64 652.046 1135.64 649.532" stroke="#FF1E56" stroke-width="4" stroke-linecap="round" stroke-linejoin="round"/>
<path d="M1119.2 641.312H1110.99" stroke="#FF1E56" stroke-width="4" stroke-linecap="round" stroke-linejoin="round"/>
<path d="M1049.62 652.626V619.748H1016.75V586.87H983.888V553.992H951.021V521.114H918.155V488.236H885.288" stroke="#FF1E56" stroke-width="3" stroke-miterlimit="10" stroke-linecap="round"/>
<path d="M1180.62 390.434V357.556H1147.76V324.678H1114.89V291.8H1082.02V258.922H1049.16V226.044H1016.29" stroke="#FF1E56" stroke-width="3" stroke-miterlimit="10" stroke-linecap="round"/>
<path d="M72.1667 370.436V337.558H39.3V304.68H6.43332V271.802H-26.4334V238.924H-59.3V206.046H-92.1667" stroke="#FF1E56" stroke-width="3" stroke-miterlimit="10" stroke-linecap="round"/>
<path d="M1522.17 734.821V701.943H1489.3V669.065H1456.43V636.187H1423.57V603.309H1390.7V570.431H1357.83" stroke="#FF1E56" stroke-width="3" stroke-miterlimit="10" stroke-linecap="round"/>
<path d="M865.568 316.729V283.851H832.701V250.973H799.835V218.095H766.968V185.217H734.101V152.339H701.235" stroke="#FF1E56" stroke-width="3" stroke-miterlimit="10" stroke-linecap="round"/>
<path d="M626.724 37.7687C649.232 37.7687 667.479 19.5159 667.479 -3.00002C667.479 -25.516 649.232 -43.7687 626.724 -43.7687C604.216 -43.7687 585.969 -25.516 585.969 -3.00002C585.969 19.5159 604.216 37.7687 626.724 37.7687Z" fill="#FF1E56"/>
<path d="M957.633 365.234C961.531 365.234 964.69 362.073 964.69 358.174C964.69 354.276 961.531 351.115 957.633 351.115C953.736 351.115 950.577 354.276 950.577 358.174C950.577 362.073 953.736 365.234 957.633 365.234Z" fill="#FF1E56"/>
<path d="M979.867 387.475C983.764 387.475 986.923 384.314 986.923 380.415C986.923 376.517 983.764 373.356 979.867 373.356C975.969 373.356 972.81 376.517 972.81 380.415C972.81 384.314 975.969 387.475 979.867 387.475Z" fill="#FF1E56"/>
<path d="M1002.1 409.716C1006 409.716 1009.16 406.555 1009.16 402.656C1009.16 398.758 1006 395.597 1002.1 395.597C998.203 395.597 995.043 398.758 995.043 402.656C995.043 406.555 998.203 409.716 1002.1 409.716Z" fill="#FF1E56"/>
<path d="M1024.33 431.957C1028.23 431.957 1031.39 428.796 1031.39 424.897C1031.39 420.999 1028.23 417.838 1024.33 417.838C1020.44 417.838 1017.28 420.999 1017.28 424.897C1017.28 428.796 1020.44 431.957 1024.33 431.957Z" fill="#FF1E56"/>
<path d="M1046.57 454.198C1050.46 454.198 1053.62 451.037 1053.62 447.138C1053.62 443.24 1050.46 440.079 1046.57 440.079C1042.67 440.079 1039.51 443.24 1039.51 447.138C1039.51 451.037 1042.67 454.198 1046.57 454.198Z" fill="#FF1E56"/>
<path d="M1068.8 476.439C1072.7 476.439 1075.86 473.278 1075.86 469.379C1075.86 465.481 1072.7 462.32 1068.8 462.32C1064.9 462.32 1061.74 465.481 1061.74 469.379C1061.74 473.278 1064.9 476.439 1068.8 476.439Z" fill="#FF1E56"/>
<path d="M1091.03 498.68C1094.93 498.68 1098.09 495.519 1098.09 491.62C1098.09 487.722 1094.93 484.561 1091.03 484.561C1087.14 484.561 1083.98 487.722 1083.98 491.62C1083.98 495.519 1087.14 498.68 1091.03 498.68Z" fill="#FF1E56"/>
<path d="M19.174 656.784C19.174 660.691 16.0227 663.843 12.1173 663.843C8.212 663.843 5.06067 660.691 5.06067 656.784C5.06067 652.877 8.212 649.725 12.1173 649.725C16.0227 649.725 19.174 652.897 19.174 656.784Z" fill="#FF1E56"/>
<path d="M41.4073 679.025C41.4073 682.932 38.2559 686.084 34.3506 686.084C30.4453 686.084 27.2939 682.932 27.2939 679.025C27.2939 675.118 30.4453 671.966 34.3506 671.966C38.2559 671.966 41.4073 675.138 41.4073 679.025Z" fill="#FF1E56"/>
<path d="M63.6407 701.266C63.6407 705.173 60.4893 708.325 56.584 708.325C52.6787 708.325 49.5273 705.173 49.5273 701.266C49.5273 697.359 52.6787 694.207 56.584 694.207C60.47 694.207 63.6407 697.379 63.6407 701.266Z" fill="#FF1E56"/>
<path d="M85.874 723.507C85.874 727.414 82.7226 730.566 78.8173 730.566C74.912 730.566 71.7607 727.414 71.7607 723.507C71.7607 719.6 74.912 716.448 78.8173 716.448C82.7033 716.448 85.874 719.62 85.874 723.507Z" fill="#FF1E56"/>
<path d="M108.107 745.748C108.107 749.655 104.956 752.807 101.051 752.807C97.1453 752.807 93.994 749.655 93.994 745.748C93.994 741.841 97.1453 738.689 101.051 738.689C104.937 738.689 108.107 741.861 108.107 745.748Z" fill="#FF1E56"/>
<path d="M434.957 897.277C434.957 901.184 431.805 904.336 427.9 904.336C423.995 904.336 420.843 901.184 420.843 897.277C420.843 893.37 423.995 890.218 427.9 890.218C431.805 890.218 434.957 893.37 434.957 897.277Z" fill="#FF1E56"/>
<path d="M457.19 919.518C457.19 923.425 454.039 926.577 450.133 926.577C446.228 926.577 443.077 923.425 443.077 919.518C443.077 915.611 446.228 912.459 450.133 912.459C454.039 912.459 457.19 915.611 457.19 919.518Z" fill="#FF1E56"/>
<path d="M479.423 941.759C479.423 945.666 476.272 948.818 472.367 948.818C468.461 948.818 465.31 945.666 465.31 941.759C465.31 937.852 468.461 934.7 472.367 934.7C476.272 934.7 479.423 937.852 479.423 941.759Z" fill="#FF1E56"/>
<path d="M501.657 964C501.657 967.907 498.505 971.059 494.6 971.059C490.695 971.059 487.543 967.907 487.543 964C487.543 960.093 490.695 956.941 494.6 956.941C498.505 956.941 501.657 960.093 501.657 964Z" fill="#FF1E56"/>
<path d="M1345.23 32.2182C1345.23 36.1248 1342.08 39.2773 1338.17 39.2773C1334.27 39.2773 1331.11 36.1248 1331.11 32.2182C1331.11 28.3115 1334.27 25.1591 1338.17 25.1591C1342.08 25.1591 1345.23 28.3115 1345.23 32.2182Z" fill="#FF1E56"/>
<path d="M1367.46 54.4591C1367.46 58.3658 1364.31 61.5182 1360.4 61.5182C1356.5 61.5182 1353.35 58.3658 1353.35 54.4591C1353.35 50.5524 1356.5 47.4 1360.4 47.4C1364.31 47.4 1367.46 50.5524 1367.46 54.4591Z" fill="#FF1E56"/>
<path d="M1389.69 76.7001C1389.69 80.6068 1386.54 83.7592 1382.64 83.7592C1378.73 83.7592 1375.58 80.6068 1375.58 76.7001C1375.58 72.7935 1378.73 69.6411 1382.64 69.6411C1386.54 69.6411 1389.69 72.7935 1389.69 76.7001Z" fill="#FF1E56"/>
<path d="M1411.93 98.9411C1411.93 102.848 1408.78 106 1404.87 106C1400.97 106 1397.81 102.848 1397.81 98.9411C1397.81 95.0344 1400.97 91.882 1404.87 91.882C1408.78 91.882 1411.93 95.0344 1411.93 98.9411Z" fill="#FF1E56"/>
<path d="M1434.16 121.182C1434.16 125.089 1431.01 128.241 1427.1 128.241C1423.2 128.241 1420.05 125.089 1420.05 121.182C1420.05 117.275 1423.2 114.123 1427.1 114.123C1431.01 114.123 1434.16 117.275 1434.16 121.182Z" fill="#FF1E56"/>
<path d="M990.577 111.454C993.119 111.454 995.179 109.393 995.179 106.851C995.179 104.309 993.119 102.248 990.577 102.248C988.036 102.248 985.976 104.309 985.976 106.851C985.976 109.393 988.036 111.454 990.577 111.454Z" fill="#FF1E56"/>
<path d="M1005.04 125.92C1007.58 125.92 1009.64 123.86 1009.64 121.318C1009.64 118.775 1007.58 116.715 1005.04 116.715C1002.5 116.715 1000.44 118.775 1000.44 121.318C1000.44 123.86 1002.5 125.92 1005.04 125.92Z" fill="#FF1E56"/>
<path d="M1019.5 140.387C1022.04 140.387 1024.1 138.326 1024.1 135.784C1024.1 133.242 1022.04 131.181 1019.5 131.181C1016.96 131.181 1014.9 133.242 1014.9 135.784C1014.9 138.326 1016.96 140.387 1019.5 140.387Z" fill="#FF1E56"/>
<path d="M1033.98 154.872C1036.52 154.872 1038.58 152.812 1038.58 150.269C1038.58 147.727 1036.52 145.667 1033.98 145.667C1031.44 145.667 1029.38 147.727 1029.38 150.269C1029.38 152.812 1031.44 154.872 1033.98 154.872Z" fill="#FF1E56"/>
<path d="M1048.44 169.339C1050.98 169.339 1053.04 167.278 1053.04 164.736C1053.04 162.194 1050.98 160.133 1048.44 160.133C1045.9 160.133 1043.84 162.194 1043.84 164.736C1043.84 167.278 1045.9 169.339 1048.44 169.339Z" fill="#FF1E56"/>
<path d="M1062.9 183.805C1065.44 183.805 1067.5 181.744 1067.5 179.202C1067.5 176.66 1065.44 174.599 1062.9 174.599C1060.36 174.599 1058.3 176.66 1058.3 179.202C1058.3 181.744 1060.36 183.805 1062.9 183.805Z" fill="#FF1E56"/>
<path d="M1077.38 198.291C1079.93 198.291 1081.99 196.23 1081.99 193.688C1081.99 191.146 1079.93 189.085 1077.38 189.085C1074.84 189.085 1072.78 191.146 1072.78 193.688C1072.78 196.23 1074.84 198.291 1077.38 198.291Z" fill="#FF1E56"/>
<path d="M71.78 932.244C74.3212 932.244 76.3813 930.183 76.3813 927.641C76.3813 925.099 74.3212 923.038 71.78 923.038C69.2387 923.038 67.1786 925.099 67.1786 927.641C67.1786 930.183 69.2387 932.244 71.78 932.244Z" fill="#FF1E56"/>
<path d="M86.2606 946.71C88.8019 946.71 90.862 944.649 90.862 942.107C90.862 939.565 88.8019 937.504 86.2606 937.504C83.7194 937.504 81.6593 939.565 81.6593 942.107C81.6593 944.649 83.7194 946.71 86.2606 946.71Z" fill="#FF1E56"/>
<path d="M100.722 961.196C103.263 961.196 105.323 959.135 105.323 956.593C105.323 954.051 103.263 951.99 100.722 951.99C98.1807 951.99 96.1206 954.051 96.1206 956.593C96.1206 959.135 98.1807 961.196 100.722 961.196Z" fill="#FF1E56"/>
<path d="M940.581 786.71C963.09 786.71 981.336 768.457 981.336 745.941C981.336 723.425 963.09 705.173 940.581 705.173C918.073 705.173 899.827 723.425 899.827 745.941C899.827 768.457 918.073 786.71 940.581 786.71Z" stroke="#AFAFAF" stroke-width="2" stroke-miterlimit="10"/>
<path d="M1282.3 482.376C1305.72 482.376 1324.72 463.378 1324.72 439.944C1324.72 416.509 1305.72 397.512 1282.3 397.512C1258.87 397.512 1239.88 416.509 1239.88 439.944C1239.88 463.378 1258.87 482.376 1282.3 482.376Z" fill="#6B6B6B"/>
<path d="M-10 826.512C8.21197 826.512 23.0213 841.326 23.0213 859.545C23.0213 877.763 8.21197 892.577 -10 892.577C-28.212 892.577 -43.0214 877.763 -43.0214 859.545C-43.0214 841.326 -28.212 826.512 -10 826.512ZM-10 818.776C-32.504 818.776 -50.7547 837.033 -50.7547 859.545C-50.7547 882.056 -32.504 900.313 -10 900.313C12.504 900.313 30.7546 882.056 30.7546 859.545C30.7546 837.033 12.504 818.776 -10 818.776Z" fill="#FF6C91"/>
<path d="M1322.82 401.148C1324.64 401.148 1326.11 399.676 1326.11 397.86C1326.11 396.044 1324.64 394.572 1322.82 394.572C1321.01 394.572 1319.53 396.044 1319.53 397.86C1319.53 399.676 1321.01 401.148 1322.82 401.148Z" fill="#FF6C91"/>
<path d="M1334.63 412.945C1336.45 412.945 1337.92 411.473 1337.92 409.658C1337.92 407.842 1336.45 406.37 1334.63 406.37C1332.82 406.37 1331.35 407.842 1331.35 409.658C1331.35 411.473 1332.82 412.945 1334.63 412.945Z" fill="#FF6C91"/>
<path d="M1346.43 424.762C1348.24 424.762 1349.71 423.29 1349.71 421.474C1349.71 419.659 1348.24 418.187 1346.43 418.187C1344.61 418.187 1343.14 419.659 1343.14 421.474C1343.14 423.29 1344.61 424.762 1346.43 424.762Z" fill="#FF6C91"/>
<path d="M1358.24 436.56C1360.05 436.56 1361.53 435.088 1361.53 433.272C1361.53 431.456 1360.05 429.984 1358.24 429.984C1356.42 429.984 1354.95 431.456 1354.95 433.272C1354.95 435.088 1356.42 436.56 1358.24 436.56Z" fill="#FF6C91"/>
<path d="M1370.03 448.376C1371.85 448.376 1373.32 446.904 1373.32 445.088C1373.32 443.273 1371.85 441.801 1370.03 441.801C1368.22 441.801 1366.75 443.273 1366.75 445.088C1366.75 446.904 1368.22 448.376 1370.03 448.376Z" fill="#FF6C91"/>
<path d="M1381.85 460.174C1383.66 460.174 1385.13 458.702 1385.13 456.886C1385.13 455.07 1383.66 453.598 1381.85 453.598C1380.03 453.598 1378.56 455.07 1378.56 456.886C1378.56 458.702 1380.03 460.174 1381.85 460.174Z" fill="#FF6C91"/>
<path d="M1393.64 471.99C1395.45 471.99 1396.93 470.518 1396.93 468.703C1396.93 466.887 1395.45 465.415 1393.64 465.415C1391.82 465.415 1390.35 466.887 1390.35 468.703C1390.35 470.518 1391.82 471.99 1393.64 471.99Z" fill="#FF6C91"/>
<path d="M1405.43 483.788C1407.25 483.788 1408.72 482.316 1408.72 480.5C1408.72 478.684 1407.25 477.212 1405.43 477.212C1403.62 477.212 1402.15 478.684 1402.15 480.5C1402.15 482.316 1403.62 483.788 1405.43 483.788Z" fill="#FF6C91"/>
<path d="M1311.03 412.945C1312.84 412.945 1314.31 411.473 1314.31 409.658C1314.31 407.842 1312.84 406.37 1311.03 406.37C1309.21 406.37 1307.74 407.842 1307.74 409.658C1307.74 411.473 1309.21 412.945 1311.03 412.945Z" fill="#FF6C91"/>
<path d="M1322.82 424.762C1324.64 424.762 1326.11 423.29 1326.11 421.474C1326.11 419.659 1324.64 418.187 1322.82 418.187C1321.01 418.187 1319.53 419.659 1319.53 421.474C1319.53 423.29 1321.01 424.762 1322.82 424.762Z" fill="#FF6C91"/>
<path d="M1334.63 436.56C1336.45 436.56 1337.92 435.088 1337.92 433.272C1337.92 431.456 1336.45 429.984 1334.63 429.984C1332.82 429.984 1331.35 431.456 1331.35 433.272C1331.35 435.088 1332.82 436.56 1334.63 436.56Z" fill="#FF6C91"/>
<path d="M1346.43 448.376C1348.24 448.376 1349.71 446.904 1349.71 445.088C1349.71 443.273 1348.24 441.801 1346.43 441.801C1344.61 441.801 1343.14 443.273 1343.14 445.088C1343.14 446.904 1344.61 448.376 1346.43 448.376Z" fill="#FF6C91"/>
<path d="M1358.24 460.174C1360.05 460.174 1361.53 458.702 1361.53 456.886C1361.53 455.07 1360.05 453.598 1358.24 453.598C1356.42 453.598 1354.95 455.07 1354.95 456.886C1354.95 458.702 1356.42 460.174 1358.24 460.174Z" fill="#FF6C91"/>
<path d="M1370.03 471.99C1371.85 471.99 1373.32 470.518 1373.32 468.703C1373.32 466.887 1371.85 465.415 1370.03 465.415C1368.22 465.415 1366.75 466.887 1366.75 468.703C1366.75 470.518 1368.22 471.99 1370.03 471.99Z" fill="#FF6C91"/>
<path d="M1381.85 483.788C1383.66 483.788 1385.13 482.316 1385.13 480.5C1385.13 478.684 1383.66 477.212 1381.85 477.212C1380.03 477.212 1378.56 478.684 1378.56 480.5C1378.56 482.316 1380.03 483.788 1381.85 483.788Z" fill="#FF6C91"/>
<path d="M1395.96 494.638C1394.68 495.914 1392.59 495.914 1391.3 494.638C1390.02 493.361 1390.02 491.272 1391.3 489.977C1392.58 488.7 1394.66 488.7 1395.96 489.977C1397.25 491.272 1397.25 493.342 1395.96 494.638Z" fill="#FF6C91"/>
<path d="M1299.23 424.762C1301.05 424.762 1302.52 423.29 1302.52 421.474C1302.52 419.659 1301.05 418.187 1299.23 418.187C1297.42 418.187 1295.95 419.659 1295.95 421.474C1295.95 423.29 1297.42 424.762 1299.23 424.762Z" fill="#FF6C91"/>
<path d="M1311.03 436.56C1312.84 436.56 1314.31 435.088 1314.31 433.272C1314.31 431.456 1312.84 429.984 1311.03 429.984C1309.21 429.984 1307.74 431.456 1307.74 433.272C1307.74 435.088 1309.21 436.56 1311.03 436.56Z" fill="#FF6C91"/>
<path d="M1322.82 448.376C1324.64 448.376 1326.11 446.904 1326.11 445.088C1326.11 443.273 1324.64 441.801 1322.82 441.801C1321.01 441.801 1319.53 443.273 1319.53 445.088C1319.53 446.904 1321.01 448.376 1322.82 448.376Z" fill="#FF6C91"/>
<path d="M1334.63 460.174C1336.45 460.174 1337.92 458.702 1337.92 456.886C1337.92 455.07 1336.45 453.598 1334.63 453.598C1332.82 453.598 1331.35 455.07 1331.35 456.886C1331.35 458.702 1332.82 460.174 1334.63 460.174Z" fill="#FF6C91"/>
<path d="M1346.43 471.99C1348.24 471.99 1349.71 470.518 1349.71 468.703C1349.71 466.887 1348.24 465.415 1346.43 465.415C1344.61 465.415 1343.14 466.887 1343.14 468.703C1343.14 470.518 1344.61 471.99 1346.43 471.99Z" fill="#FF6C91"/>
<path d="M1358.24 483.788C1360.05 483.788 1361.53 482.316 1361.53 480.5C1361.53 478.684 1360.05 477.212 1358.24 477.212C1356.42 477.212 1354.95 478.684 1354.95 480.5C1354.95 482.316 1356.42 483.788 1358.24 483.788Z" fill="#FF6C91"/>
<path d="M1372.37 494.638C1371.1 495.914 1369.01 495.914 1367.71 494.638C1366.44 493.361 1366.44 491.272 1367.71 489.977C1368.99 488.7 1371.08 488.7 1372.37 489.977C1373.65 491.272 1373.65 493.342 1372.37 494.638Z" fill="#FF6C91"/>
<path d="M1381.85 507.402C1383.66 507.402 1385.13 505.93 1385.13 504.114C1385.13 502.298 1383.66 500.826 1381.85 500.826C1380.03 500.826 1378.56 502.298 1378.56 504.114C1378.56 505.93 1380.03 507.402 1381.85 507.402Z" fill="#FF6C91"/>
<path d="M1287.42 436.56C1289.24 436.56 1290.71 435.088 1290.71 433.272C1290.71 431.456 1289.24 429.984 1287.42 429.984C1285.61 429.984 1284.13 431.456 1284.13 433.272C1284.13 435.088 1285.61 436.56 1287.42 436.56Z" fill="#FF6C91"/>
<path d="M1299.23 448.376C1301.05 448.376 1302.52 446.904 1302.52 445.088C1302.52 443.273 1301.05 441.801 1299.23 441.801C1297.42 441.801 1295.95 443.273 1295.95 445.088C1295.95 446.904 1297.42 448.376 1299.23 448.376Z" fill="#FF6C91"/>
<path d="M1311.03 460.174C1312.84 460.174 1314.31 458.702 1314.31 456.886C1314.31 455.07 1312.84 453.598 1311.03 453.598C1309.21 453.598 1307.74 455.07 1307.74 456.886C1307.74 458.702 1309.21 460.174 1311.03 460.174Z" fill="#FF6C91"/>
<path d="M1322.82 471.99C1324.64 471.99 1326.11 470.518 1326.11 468.703C1326.11 466.887 1324.64 465.415 1322.82 465.415C1321.01 465.415 1319.53 466.887 1319.53 468.703C1319.53 470.518 1321.01 471.99 1322.82 471.99Z" fill="#FF6C91"/>
<path d="M1334.63 483.788C1336.45 483.788 1337.92 482.316 1337.92 480.5C1337.92 478.684 1336.45 477.212 1334.63 477.212C1332.82 477.212 1331.35 478.684 1331.35 480.5C1331.35 482.316 1332.82 483.788 1334.63 483.788Z" fill="#FF6C91"/>
<path d="M1348.77 494.638C1347.49 495.914 1345.4 495.914 1344.11 494.638C1342.83 493.361 1342.83 491.272 1344.11 489.977C1345.38 488.7 1347.47 488.7 1348.77 489.977C1350.04 491.272 1350.04 493.342 1348.77 494.638Z" fill="#FF6C91"/>
<path d="M1358.24 507.402C1360.05 507.402 1361.53 505.93 1361.53 504.114C1361.53 502.298 1360.05 500.826 1358.24 500.826C1356.42 500.826 1354.95 502.298 1354.95 504.114C1354.95 505.93 1356.42 507.402 1358.24 507.402Z" fill="#FF6C91"/>
<path d="M1370.03 519.199C1371.85 519.199 1373.32 517.727 1373.32 515.912C1373.32 514.096 1371.85 512.624 1370.03 512.624C1368.22 512.624 1366.75 514.096 1366.75 515.912C1366.75 517.727 1368.22 519.199 1370.03 519.199Z" fill="#FF6C91"/>
<path d="M1275.63 448.376C1277.44 448.376 1278.91 446.904 1278.91 445.088C1278.91 443.273 1277.44 441.801 1275.63 441.801C1273.81 441.801 1272.34 443.273 1272.34 445.088C1272.34 446.904 1273.81 448.376 1275.63 448.376Z" fill="#FF6C91"/>
<path d="M1287.42 460.174C1289.24 460.174 1290.71 458.702 1290.71 456.886C1290.71 455.07 1289.24 453.598 1287.42 453.598C1285.61 453.598 1284.13 455.07 1284.13 456.886C1284.13 458.702 1285.61 460.174 1287.42 460.174Z" fill="#FF6C91"/>
<path d="M1299.23 471.99C1301.05 471.99 1302.52 470.518 1302.52 468.703C1302.52 466.887 1301.05 465.415 1299.23 465.415C1297.42 465.415 1295.95 466.887 1295.95 468.703C1295.95 470.518 1297.42 471.99 1299.23 471.99Z" fill="#FF6C91"/>
<path d="M1311.03 483.788C1312.84 483.788 1314.31 482.316 1314.31 480.5C1314.31 478.684 1312.84 477.212 1311.03 477.212C1309.21 477.212 1307.74 478.684 1307.74 480.5C1307.74 482.316 1309.21 483.788 1311.03 483.788Z" fill="#FF6C91"/>
<path d="M1325.16 494.638C1323.88 495.914 1321.8 495.914 1320.5 494.638C1319.22 493.361 1319.22 491.272 1320.5 489.977C1321.78 488.7 1323.86 488.7 1325.16 489.977C1326.44 491.272 1326.44 493.342 1325.16 494.638Z" fill="#FF6C91"/>
<path d="M1334.63 507.402C1336.45 507.402 1337.92 505.93 1337.92 504.114C1337.92 502.298 1336.45 500.826 1334.63 500.826C1332.82 500.826 1331.35 502.298 1331.35 504.114C1331.35 505.93 1332.82 507.402 1334.63 507.402Z" fill="#FF6C91"/>
<path d="M1346.43 519.199C1348.24 519.199 1349.71 517.727 1349.71 515.911C1349.71 514.096 1348.24 512.624 1346.43 512.624C1344.61 512.624 1343.14 514.096 1343.14 515.911C1343.14 517.727 1344.61 519.199 1346.43 519.199Z" fill="#FF6C91"/>
<path d="M1360.56 530.049C1359.28 531.326 1357.2 531.326 1355.9 530.049C1354.62 528.773 1354.62 526.684 1355.9 525.388C1357.18 524.112 1359.26 524.112 1360.56 525.388C1361.85 526.684 1361.85 528.773 1360.56 530.049Z" fill="#FF6C91"/>
<path d="M1263.82 460.174C1265.63 460.174 1267.1 458.702 1267.1 456.886C1267.1 455.07 1265.63 453.598 1263.82 453.598C1262 453.598 1260.53 455.07 1260.53 456.886C1260.53 458.702 1262 460.174 1263.82 460.174Z" fill="#FF6C91"/>
<path d="M1275.63 471.99C1277.44 471.99 1278.91 470.518 1278.91 468.703C1278.91 466.887 1277.44 465.415 1275.63 465.415C1273.81 465.415 1272.34 466.887 1272.34 468.703C1272.34 470.518 1273.81 471.99 1275.63 471.99Z" fill="#FF6C91"/>
<path d="M1287.42 483.788C1289.24 483.788 1290.71 482.316 1290.71 480.5C1290.71 478.684 1289.24 477.212 1287.42 477.212C1285.61 477.212 1284.13 478.684 1284.13 480.5C1284.13 482.316 1285.61 483.788 1287.42 483.788Z" fill="#FF6C91"/>
<path d="M1301.55 494.638C1300.28 495.914 1298.19 495.914 1296.89 494.638C1295.62 493.361 1295.62 491.272 1296.89 489.977C1298.17 488.7 1300.26 488.7 1301.55 489.977C1302.83 491.272 1302.83 493.342 1301.55 494.638Z" fill="#FF6C91"/>
<path d="M1311.03 507.402C1312.84 507.402 1314.31 505.93 1314.31 504.114C1314.31 502.298 1312.84 500.826 1311.03 500.826C1309.21 500.826 1307.74 502.298 1307.74 504.114C1307.74 505.93 1309.21 507.402 1311.03 507.402Z" fill="#FF6C91"/>
<path d="M1322.82 519.199C1324.64 519.199 1326.11 517.727 1326.11 515.912C1326.11 514.096 1324.64 512.624 1322.82 512.624C1321.01 512.624 1319.53 514.096 1319.53 515.912C1319.53 517.727 1321.01 519.199 1322.82 519.199Z" fill="#FF6C91"/>
<path d="M1336.95 530.049C1335.68 531.326 1333.59 531.326 1332.29 530.049C1331.02 528.773 1331.02 526.684 1332.29 525.388C1333.57 524.112 1335.66 524.112 1336.95 525.388C1338.25 526.684 1338.25 528.773 1336.95 530.049Z" fill="#FF6C91"/>
<path d="M1346.43 542.813C1348.24 542.813 1349.71 541.341 1349.71 539.526C1349.71 537.71 1348.24 536.238 1346.43 536.238C1344.61 536.238 1343.14 537.71 1343.14 539.526C1343.14 541.341 1344.61 542.813 1346.43 542.813Z" fill="#FF6C91"/>
<path d="M1252.02 471.99C1253.84 471.99 1255.31 470.518 1255.31 468.703C1255.31 466.887 1253.84 465.415 1252.02 465.415C1250.21 465.415 1248.74 466.887 1248.74 468.703C1248.74 470.518 1250.21 471.99 1252.02 471.99Z" fill="#FF6C91"/>
<path d="M1263.82 483.788C1265.63 483.788 1267.1 482.316 1267.1 480.5C1267.1 478.684 1265.63 477.212 1263.82 477.212C1262 477.212 1260.53 478.684 1260.53 480.5C1260.53 482.316 1262 483.788 1263.82 483.788Z" fill="#FF6C91"/>
<path d="M1277.95 494.638C1276.67 495.914 1274.58 495.914 1273.29 494.638C1272.01 493.361 1272.01 491.272 1273.29 489.977C1274.56 488.7 1276.65 488.7 1277.95 489.977C1279.24 491.272 1279.24 493.342 1277.95 494.638Z" fill="#FF6C91"/>
<path d="M1287.42 507.402C1289.24 507.402 1290.71 505.93 1290.71 504.114C1290.71 502.298 1289.24 500.826 1287.42 500.826C1285.61 500.826 1284.13 502.298 1284.13 504.114C1284.13 505.93 1285.61 507.402 1287.42 507.402Z" fill="#FF6C91"/>
<path d="M1299.23 519.199C1301.05 519.199 1302.52 517.727 1302.52 515.912C1302.52 514.096 1301.05 512.624 1299.23 512.624C1297.42 512.624 1295.95 514.096 1295.95 515.912C1295.95 517.727 1297.42 519.199 1299.23 519.199Z" fill="#FF6C91"/>
<path d="M1313.35 530.049C1312.07 531.326 1309.98 531.326 1308.69 530.049C1307.41 528.773 1307.41 526.684 1308.69 525.388C1309.96 524.112 1312.05 524.112 1313.35 525.388C1314.64 526.684 1314.64 528.773 1313.35 530.049Z" fill="#FF6C91"/>
<path d="M1322.82 542.813C1324.64 542.813 1326.11 541.341 1326.11 539.526C1326.11 537.71 1324.64 536.238 1322.82 536.238C1321.01 536.238 1319.53 537.71 1319.53 539.526C1319.53 541.341 1321.01 542.813 1322.82 542.813Z" fill="#FF6C91"/>
<path d="M1336.95 553.663C1335.68 554.94 1333.59 554.94 1332.29 553.663C1331.02 552.387 1331.02 550.298 1332.29 549.002C1333.57 547.726 1335.66 547.726 1336.95 549.002C1338.25 550.298 1338.25 552.367 1336.95 553.663Z" fill="#FF6C91"/>
<path d="M1240.23 483.788C1242.04 483.788 1243.52 482.316 1243.52 480.5C1243.52 478.684 1242.04 477.212 1240.23 477.212C1238.41 477.212 1236.94 478.684 1236.94 480.5C1236.94 482.316 1238.41 483.788 1240.23 483.788Z" fill="#FF6C91"/>
<path d="M1254.34 494.638C1253.07 495.914 1250.98 495.914 1249.68 494.638C1248.41 493.361 1248.41 491.272 1249.68 489.977C1250.96 488.7 1253.05 488.7 1254.34 489.977C1255.64 491.272 1255.64 493.342 1254.34 494.638Z" fill="#FF6C91"/>
<path d="M1263.82 507.402C1265.63 507.402 1267.1 505.93 1267.1 504.114C1267.1 502.298 1265.63 500.826 1263.82 500.826C1262 500.826 1260.53 502.298 1260.53 504.114C1260.53 505.93 1262 507.402 1263.82 507.402Z" fill="#FF6C91"/>
<path d="M1275.63 519.199C1277.44 519.199 1278.91 517.727 1278.91 515.911C1278.91 514.096 1277.44 512.624 1275.63 512.624C1273.81 512.624 1272.34 514.096 1272.34 515.911C1272.34 517.727 1273.81 519.199 1275.63 519.199Z" fill="#FF6C91"/>
<path d="M1289.76 530.049C1288.48 531.326 1286.4 531.326 1285.1 530.049C1283.83 528.773 1283.83 526.684 1285.1 525.388C1286.38 524.112 1288.47 524.112 1289.76 525.388C1291.04 526.684 1291.04 528.773 1289.76 530.049Z" fill="#FF6C91"/>
<path d="M1299.23 542.813C1301.05 542.813 1302.52 541.341 1302.52 539.526C1302.52 537.71 1301.05 536.238 1299.23 536.238C1297.42 536.238 1295.95 537.71 1295.95 539.526C1295.95 541.341 1297.42 542.813 1299.23 542.813Z" fill="#FF6C91"/>
<path d="M1313.35 553.663C1312.07 554.94 1309.98 554.94 1308.69 553.663C1307.41 552.387 1307.41 550.298 1308.69 549.002C1309.96 547.726 1312.05 547.726 1313.35 549.002C1314.64 550.298 1314.64 552.367 1313.35 553.663Z" fill="#FF6C91"/>
<path d="M1322.82 566.428C1324.64 566.428 1326.11 564.956 1326.11 563.14C1326.11 561.324 1324.64 559.852 1322.82 559.852C1321.01 559.852 1319.53 561.324 1319.53 563.14C1319.53 564.956 1321.01 566.428 1322.82 566.428Z" fill="#FF6C91"/>
<path d="M614.815 238.866C602.654 251.031 582.934 251.031 570.773 238.866L259.526 -72.4886C247.365 -84.6535 247.365 -104.38 259.526 -116.545C271.687 -128.71 291.407 -128.71 303.567 -116.545L614.815 194.81C626.975 206.974 626.975 226.701 614.815 238.866Z" stroke="#FFB4C6" stroke-width="2" stroke-miterlimit="10"/>
<path d="M1067.1 1160.32C1054.94 1172.49 1035.22 1172.49 1023.06 1160.32L711.81 848.966C699.649 836.801 699.649 817.074 711.81 804.909C723.971 792.744 743.691 792.744 755.851 804.909L1067.1 1116.26C1079.26 1128.43 1079.26 1148.16 1067.1 1160.32Z" stroke="#FF1E56" stroke-width="4" stroke-miterlimit="10"/>
<path d="M727.644 308.645C715.483 320.81 695.763 320.81 683.603 308.645L462.507 87.4918C450.346 75.327 450.346 55.6002 462.507 43.4353C474.667 31.2704 494.387 31.2704 506.548 43.4353L727.625 264.588C739.805 276.753 739.805 296.48 727.644 308.645Z" stroke="#FF1E56" stroke-width="2" stroke-miterlimit="10"/>
<path d="M1576.15 425.69C1563.98 437.855 1544.26 437.855 1532.1 425.69L1220.86 114.336C1208.7 102.171 1208.7 82.4441 1220.86 70.2792C1233.02 58.1144 1252.74 58.1144 1264.9 70.2792L1576.15 381.634C1588.31 393.799 1588.31 413.526 1576.15 425.69Z" stroke="#FF1E56" stroke-width="2" stroke-miterlimit="10"/>
<path d="M1358.72 252.153C1346.56 264.317 1326.84 264.317 1314.68 252.153L1003.43 -59.202C991.273 -71.3669 991.273 -91.0937 1003.43 -103.259C1015.59 -115.423 1035.31 -115.423 1047.48 -103.259L1358.72 208.096C1370.88 220.261 1370.88 239.988 1358.72 252.153Z" stroke="#FF1E56" stroke-width="4" stroke-miterlimit="10"/>
<path d="M1639.96 945.878C1627.8 958.043 1608.08 958.043 1595.92 945.878L1284.68 634.524C1272.52 622.359 1272.52 602.632 1284.68 590.467C1296.84 578.302 1316.56 578.302 1328.72 590.467L1639.96 901.822C1652.13 913.987 1652.13 933.714 1639.96 945.878Z" stroke="#FF1E56" stroke-width="2" stroke-miterlimit="10"/>
<path d="M835.485 880.548C823.325 892.713 803.605 892.713 791.444 880.548L670.901 759.963C658.74 747.798 658.74 728.071 670.901 715.907C683.061 703.742 702.781 703.742 714.942 715.907L835.485 836.491C847.646 848.656 847.646 868.383 835.485 880.548Z" stroke="#FFB4C6" stroke-width="2" stroke-miterlimit="10"/>
<path d="M-145.333 -50.5184L207.906 302.843" stroke="#FF6C91" stroke-width="2" stroke-miterlimit="10" stroke-linecap="round"/>
<path d="M884.882 367.09L1102.3 584.588" stroke="#FFB4C6" stroke-width="2" stroke-miterlimit="10"/>
<path d="M1078.54 760.33L1110.99 792.802" stroke="#FFB4C6" stroke-width="2" stroke-miterlimit="10" stroke-linecap="round" stroke-linejoin="round"/>
<path d="M1035.66 717.454L1068.1 749.906" stroke="#FFB4C6" stroke-width="2" stroke-miterlimit="10" stroke-linecap="round" stroke-linejoin="round"/>
<path d="M992.781 674.557L1025.22 707.01" stroke="#FFB4C6" stroke-width="2" stroke-miterlimit="10" stroke-linecap="round" stroke-linejoin="round"/>
<path d="M949.9 631.661L982.341 664.114" stroke="#FFB4C6" stroke-width="2" stroke-miterlimit="10" stroke-linecap="round" stroke-linejoin="round"/>
<path d="M810.062 116.154L842.503 148.626" stroke="#FFB4C6" stroke-width="2" stroke-miterlimit="10" stroke-linecap="round" stroke-linejoin="round"/>
<path d="M767.181 73.2769L799.622 105.729" stroke="#FFB4C6" stroke-width="2" stroke-miterlimit="10" stroke-linecap="round" stroke-linejoin="round"/>
<path d="M724.319 30.3808L756.76 62.8333" stroke="#FFB4C6" stroke-width="2" stroke-miterlimit="10" stroke-linecap="round" stroke-linejoin="round"/>
<path d="M681.437 -12.5153L713.879 19.9372" stroke="#FFB4C6" stroke-width="2" stroke-miterlimit="10" stroke-linecap="round" stroke-linejoin="round"/>
<path d="M1302.19 68.0551L1334.63 100.508" stroke="#FFB4C6" stroke-width="2" stroke-miterlimit="10"/>
<path d="M1259.31 25.159L1291.75 57.6115" stroke="#FFB4C6" stroke-width="2" stroke-miterlimit="10"/>
<path d="M1216.43 -17.7371L1248.87 14.7154" stroke="#FFB4C6" stroke-width="2" stroke-miterlimit="10"/>
<path d="M1240.23 247.318L1516.87 524.034" stroke="#FF6C91" stroke-width="2" stroke-miterlimit="10" stroke-linecap="round"/>
<path d="M321.025 580.159L538.448 797.657" stroke="#FF6C91" stroke-width="4" stroke-miterlimit="10" stroke-linecap="round"/>
<path d="M35.4139 205.988L252.837 423.505" stroke="#FF6C91" stroke-width="8" stroke-miterlimit="10" stroke-linecap="round"/>
<path d="M761.98 687.032L979.402 904.529" stroke="#FF6C91" stroke-width="8" stroke-miterlimit="10" stroke-linecap="round"/>
<path d="M699.166 -47.598L916.588 169.9" stroke="#FF6C91" stroke-width="8" stroke-miterlimit="10" stroke-linecap="round"/>
<path d="M615.588 303.945L833.03 521.443" stroke="#FFDAE3" stroke-width="9" stroke-miterlimit="10" stroke-linecap="round" stroke-linejoin="round"/>
<path d="M1130.9 223.123L1248.66 340.923" stroke="#555555" stroke-width="8" stroke-miterlimit="10" stroke-linecap="round"/>
<path d="M1072.03 84.5328L1189.77 202.313" stroke="#555555" stroke-width="8" stroke-miterlimit="10" stroke-linecap="round"/>
<path d="M733.618 561.012C739.896 561.012 744.986 555.921 744.986 549.641C744.986 543.36 739.896 538.269 733.618 538.269C727.34 538.269 722.25 543.36 722.25 549.641C722.25 555.921 727.34 561.012 733.618 561.012Z" fill="#FFCDD9"/>
<path d="M763.894 591.318C770.172 591.318 775.262 586.227 775.262 579.946C775.262 573.666 770.172 568.574 763.894 568.574C757.616 568.574 752.526 573.666 752.526 579.946C752.526 586.227 757.616 591.318 763.894 591.318Z" fill="#FFCDD9"/>
<path d="M794.189 621.605C800.468 621.605 805.557 616.513 805.557 610.233C805.557 603.952 800.468 598.861 794.189 598.861C787.911 598.861 782.821 603.952 782.821 610.233C782.821 616.513 787.911 621.605 794.189 621.605Z" fill="#FFCDD9"/>
<path d="M824.485 651.91C830.763 651.91 835.853 646.819 835.853 640.538C835.853 634.258 830.763 629.167 824.485 629.167C818.206 629.167 813.117 634.258 813.117 640.538C813.117 646.819 818.206 651.91 824.485 651.91Z" fill="#FFCDD9"/>
<path d="M908.759 239.002C915.037 239.002 920.127 233.91 920.127 227.63C920.127 221.349 915.037 216.258 908.759 216.258C902.48 216.258 897.391 221.349 897.391 227.63C897.391 233.91 902.48 239.002 908.759 239.002Z" stroke="#FF1E56" stroke-width="2" stroke-miterlimit="10"/>
<path d="M939.054 269.307C945.332 269.307 950.422 264.216 950.422 257.935C950.422 251.655 945.332 246.563 939.054 246.563C932.776 246.563 927.686 251.655 927.686 257.935C927.686 264.216 932.776 269.307 939.054 269.307Z" stroke="#FF1E56" stroke-width="2" stroke-miterlimit="10"/>
<path d="M969.33 299.613C975.608 299.613 980.698 294.522 980.698 288.241C980.698 281.961 975.608 276.869 969.33 276.869C963.052 276.869 957.962 281.961 957.962 288.241C957.962 294.522 963.052 299.613 969.33 299.613Z" stroke="#FF1E56" stroke-width="2" stroke-miterlimit="10"/>
<path d="M999.625 329.899C1005.9 329.899 1010.99 324.808 1010.99 318.527C1010.99 312.247 1005.9 307.156 999.625 307.156C993.347 307.156 988.257 312.247 988.257 318.527C988.257 324.808 993.347 329.899 999.625 329.899Z" stroke="#FF1E56" stroke-width="2" stroke-miterlimit="10"/>
<path d="M359.228 116.192C365.506 116.192 370.596 111.101 370.596 104.821C370.596 98.54 365.506 93.4486 359.228 93.4486C352.95 93.4486 347.86 98.54 347.86 104.821C347.86 111.101 352.95 116.192 359.228 116.192Z" fill="#FFCDD9"/>
<path d="M389.523 146.479C395.802 146.479 400.891 141.388 400.891 135.107C400.891 128.826 395.802 123.735 389.523 123.735C383.245 123.735 378.155 128.826 378.155 135.107C378.155 141.388 383.245 146.479 389.523 146.479Z" fill="#FFCDD9"/>
<path d="M419.819 176.765C426.086 176.765 431.167 171.683 431.167 165.413C431.167 159.143 426.086 154.06 419.819 154.06C413.551 154.06 408.47 159.143 408.47 165.413C408.47 171.683 413.551 176.765 419.819 176.765Z" fill="#FFCDD9"/>
<path d="M450.095 207.09C456.373 207.09 461.463 201.999 461.463 195.719C461.463 189.438 456.373 184.347 450.095 184.347C443.816 184.347 438.727 189.438 438.727 195.719C438.727 201.999 443.816 207.09 450.095 207.09Z" fill="#FFCDD9"/>
<path d="M341.383 235.23C347.662 235.23 352.751 230.139 352.751 223.858C352.751 217.578 347.662 212.486 341.383 212.486C335.105 212.486 330.015 217.578 330.015 223.858C330.015 230.139 335.105 235.23 341.383 235.23Z" stroke="#FF1E56" stroke-width="2" stroke-miterlimit="10"/>
<path d="M371.679 265.517C377.957 265.517 383.047 260.425 383.047 254.145C383.047 247.864 377.957 242.773 371.679 242.773C365.4 242.773 360.311 247.864 360.311 254.145C360.311 260.425 365.4 265.517 371.679 265.517Z" stroke="#FF1E56" stroke-width="2" stroke-miterlimit="10"/>
<path d="M401.974 295.822C408.252 295.822 413.342 290.731 413.342 284.45C413.342 278.17 408.252 273.078 401.974 273.078C395.696 273.078 390.606 278.17 390.606 284.45C390.606 290.731 395.696 295.822 401.974 295.822Z" stroke="#FF1E56" stroke-width="2" stroke-miterlimit="10"/>
<path d="M788.95 393.779C795.228 393.779 800.318 388.688 800.318 382.407C800.318 376.127 795.228 371.036 788.95 371.036C782.672 371.036 777.582 376.127 777.582 382.407C777.582 388.688 782.672 393.779 788.95 393.779Z" fill="#6B6B6B"/>
<path d="M819.245 424.066C825.524 424.066 830.613 418.974 830.613 412.694C830.613 406.413 825.524 401.322 819.245 401.322C812.967 401.322 807.877 406.413 807.877 412.694C807.877 418.974 812.967 424.066 819.245 424.066Z" fill="#6B6B6B"/>
<path d="M849.521 454.372C855.8 454.372 860.889 449.28 860.889 443C860.889 436.719 855.8 431.628 849.521 431.628C843.243 431.628 838.153 436.719 838.153 443C838.153 449.28 843.243 454.372 849.521 454.372Z" fill="#6B6B6B"/>
<path d="M-10.0967 374.826C-3.81835 374.826 1.27128 369.735 1.27128 363.454C1.27128 357.174 -3.81835 352.082 -10.0967 352.082C-16.3751 352.082 -21.4647 357.174 -21.4647 363.454C-21.4647 369.735 -16.3751 374.826 -10.0967 374.826Z" fill="#FFCDD9"/>
<path d="M20.1986 405.132C26.477 405.132 31.5666 400.041 31.5666 393.76C31.5666 387.48 26.477 382.388 20.1986 382.388C13.9203 382.388 8.83063 387.48 8.83063 393.76C8.83063 400.041 13.9203 405.132 20.1986 405.132Z" fill="#FFCDD9"/>
<path d="M50.494 435.438C56.7724 435.438 61.862 430.346 61.862 424.066C61.862 417.785 56.7724 412.694 50.494 412.694C44.2156 412.694 39.126 417.785 39.126 424.066C39.126 430.346 44.2156 435.438 50.494 435.438Z" fill="#FFCDD9"/>
<path d="M600.45 827.401C606.728 827.401 611.818 822.31 611.818 816.029C611.818 809.749 606.728 804.657 600.45 804.657C594.172 804.657 589.082 809.749 589.082 816.029C589.082 822.31 594.172 827.401 600.45 827.401Z" stroke="#FFCDD9" stroke-miterlimit="10"/>
<path d="M630.745 857.707C637.024 857.707 642.113 852.616 642.113 846.335C642.113 840.055 637.024 834.964 630.745 834.964C624.467 834.964 619.377 840.055 619.377 846.335C619.377 852.616 624.467 857.707 630.745 857.707Z" stroke="#FFCDD9" stroke-miterlimit="10"/>
<path d="M661.041 888.013C667.319 888.013 672.409 882.922 672.409 876.641C672.409 870.361 667.319 865.269 661.041 865.269C654.762 865.269 649.673 870.361 649.673 876.641C649.673 882.922 654.762 888.013 661.041 888.013Z" stroke="#FFCDD9" stroke-miterlimit="10"/>
<path d="M691.317 918.3C697.595 918.3 702.685 913.208 702.685 906.928C702.685 900.647 697.595 895.556 691.317 895.556C685.038 895.556 679.949 900.647 679.949 906.928C679.949 913.208 685.038 918.3 691.317 918.3Z" stroke="#FFCDD9" stroke-miterlimit="10"/>
<path d="M365.144 903.833L582.567 1121.33" stroke="#FFDAE3" stroke-width="9" stroke-miterlimit="10" stroke-linecap="round" stroke-linejoin="round"/>
<path d="M1288.21 -83.5898L1505.64 133.908" stroke="#FFDAE3" stroke-width="9" stroke-miterlimit="10" stroke-linecap="round" stroke-linejoin="round"/>
<path d="M147.644 197.246L330.905 380.57" stroke="#FFDAE3" stroke-width="5" stroke-miterlimit="10" stroke-linecap="round" stroke-linejoin="round"/>
<path d="M585.467 846.026L768.747 1029.37" stroke="#FFDAE3" stroke-width="5" stroke-miterlimit="10" stroke-linecap="round" stroke-linejoin="round"/>
<path d="M-52.5333 731.282L130.747 914.606" stroke="#FFDAE3" stroke-width="5" stroke-miterlimit="10" stroke-linecap="round" stroke-linejoin="round"/>
<path d="M1037.05 356.395L1220.33 539.738" stroke="#FFDAE3" stroke-width="5" stroke-miterlimit="10" stroke-linecap="round" stroke-linejoin="round"/>
<line x1="164.722" y1="930.253" x2="638.559" y2="930.253" stroke="#F5F5F5"/>
</g>
<defs>
<clipPath id="clip0">
<rect width="1450" height="967" fill="white" transform="translate(-10 -3)"/>
</clipPath>
</defs>
</svg>
